<svg width="311" height="106" viewBox="0 0 311 106" fill="none" xmlns="http://www.w3.org/2000/svg">
<rect x="49.7207" y="43.3105" width="4.56461" height="22.6369" fill="#93642D"/>
<rect x="49.7207" y="43.1143" width="4.43987" height="17.2226" fill="#714D22"/>
<path fill-rule="evenodd" clip-rule="evenodd" d="M45.663 41.2837C45.663 37.7356 48.5393 34.8594 52.0873 34.8594C55.6353 34.8594 58.5116 37.7356 58.5116 41.2836V42.4339C58.5116 42.5719 58.5072 42.709 58.4986 42.8448C61.159 43.6304 63.1005 46.092 63.1005 49.0069V50.1572C63.1005 53.7052 60.2242 56.5815 56.6762 56.5815C54.7576 56.5815 53.0355 55.7404 51.8583 54.407C50.6812 55.7404 48.959 56.5815 47.0405 56.5815C43.4925 56.5815 40.6162 53.7052 40.6162 50.1572V49.007C40.6162 45.9294 42.7803 43.3572 45.6697 42.7292C45.6653 42.6314 45.663 42.5329 45.663 42.4339V41.2837Z" fill="#83C082"/>
<path fill-rule="evenodd" clip-rule="evenodd" d="M46.3668 29.8074C46.3668 26.7325 48.8596 24.2397 51.9345 24.2397C55.0095 24.2397 57.5022 26.7325 57.5022 29.8074V30.8043C57.5022 30.9242 57.4985 31.0431 57.491 31.1611C59.7961 31.8423 61.4781 33.9753 61.4781 36.5012V37.4981C61.4781 40.5731 58.9853 43.0658 55.9104 43.0658C54.2475 43.0658 52.7548 42.3368 51.7346 41.181C50.7144 42.3368 49.2218 43.0658 47.5589 43.0658C44.484 43.0658 41.9912 40.5731 41.9912 37.4981V36.5012C41.9912 33.8334 43.8676 31.6038 46.3726 31.0602C46.3688 30.9754 46.3668 30.8901 46.3668 30.8043V29.8074Z" fill="#66A865"/>
<path fill-rule="evenodd" clip-rule="evenodd" d="M47.4169 20.6021C47.4169 18.079 49.4623 16.0337 51.9853 16.0337C54.5084 16.0337 56.5537 18.079 56.5537 20.6021V21.42C56.5537 21.5182 56.5506 21.6156 56.5445 21.7123C58.4365 22.2708 59.8172 24.0213 59.8172 26.0943V26.9123C59.8172 29.4353 57.7719 31.4806 55.2488 31.4806C53.8844 31.4806 52.6598 30.8825 51.8227 29.9342C50.9856 30.8825 49.7609 31.4806 48.3965 31.4806C45.8735 31.4806 43.8281 29.4353 43.8281 26.9123V26.0943C43.8281 23.9058 45.367 22.0767 47.4217 21.6302C47.4185 21.5605 47.4169 21.4904 47.4169 21.42V20.6021Z" fill="#83C082"/>
<path fill-rule="evenodd" clip-rule="evenodd" d="M40.6842 47.7285C41.2644 50.6801 43.8661 52.9066 46.9877 52.9066C48.9063 52.9066 50.6284 52.0655 51.8056 50.7321C52.9827 52.0655 54.7048 52.9066 56.6234 52.9066C59.7435 52.9066 62.3441 50.6823 62.926 47.7329C63.0053 48.1362 63.0469 48.553 63.0469 48.9795V50.1297C63.0469 53.6777 60.1706 56.554 56.6226 56.554C54.704 56.554 52.9818 55.7129 51.8047 54.3794C50.6275 55.7129 48.9054 56.554 46.9868 56.554C43.4387 56.554 40.5625 53.6777 40.5625 50.1297V48.9795C40.5625 48.5514 40.6044 48.1331 40.6842 47.7285Z" fill="#679A66"/>
<rect x="81.2744" y="38.5688" width="4.56461" height="22.6369" fill="#93642D"/>
<rect x="81.2744" y="38.373" width="4.43987" height="17.2226" fill="#714D22"/>
<path fill-rule="evenodd" clip-rule="evenodd" d="M77.2166 36.5424C77.2166 32.9944 80.0929 30.1182 83.6409 30.1182C87.1889 30.1182 90.0652 32.9944 90.0652 36.5424V37.6927C90.0652 37.8309 90.0608 37.9681 90.0522 38.1041C92.7117 38.8903 94.6523 41.3514 94.6523 44.2657V45.416C94.6523 48.964 91.7761 51.8403 88.2281 51.8403C86.3095 51.8403 84.5873 50.9992 83.4102 49.6657C82.233 50.9992 80.5108 51.8403 78.5922 51.8403C75.0442 51.8403 72.168 48.964 72.168 45.416V44.2658C72.168 41.1875 74.3329 38.615 77.2233 37.9876C77.2189 37.8899 77.2166 37.7915 77.2166 37.6927V36.5424Z" fill="#83C082"/>
<path fill-rule="evenodd" clip-rule="evenodd" d="M77.9198 25.0662C77.9198 21.9913 80.4126 19.4985 83.4875 19.4985C86.5625 19.4985 89.0552 21.9913 89.0552 25.0662V26.0631C89.0552 26.1829 89.0515 26.3017 89.044 26.4196C91.3494 27.1006 93.0318 29.2338 93.0318 31.76V32.7569C93.0318 35.8318 90.539 38.3246 87.4641 38.3246C85.8009 38.3246 84.3081 37.5953 83.2879 36.4391C82.2676 37.5953 80.7748 38.3245 79.1116 38.3245C76.0367 38.3245 73.5439 35.8318 73.5439 32.7568V31.76C73.5439 29.092 75.4204 26.8624 77.9256 26.3189C77.9218 26.2341 77.9198 26.1488 77.9198 26.0631V25.0662Z" fill="#66A865"/>
<path fill-rule="evenodd" clip-rule="evenodd" d="M78.969 15.8604C78.969 13.3373 81.0143 11.292 83.5374 11.292C86.0604 11.292 88.1057 13.3373 88.1057 15.8604V16.6783C88.1057 16.7764 88.1026 16.8737 88.0966 16.9703C89.9891 17.5285 91.3704 19.2792 91.3704 21.3526V22.1706C91.3704 24.6936 89.3251 26.739 86.802 26.739C85.4375 26.739 84.2127 26.1407 83.3756 25.1922C82.5385 26.1407 81.3137 26.739 79.9492 26.739C77.4262 26.739 75.3809 24.6936 75.3809 22.1706V21.3526C75.3809 19.1644 76.9194 17.3355 78.9737 16.8886C78.9706 16.8189 78.969 16.7488 78.969 16.6783V15.8604Z" fill="#83C082"/>
<path fill-rule="evenodd" clip-rule="evenodd" d="M72.2379 42.9868C72.8181 45.9384 75.4197 48.165 78.5414 48.165C80.4601 48.165 82.1824 47.3238 83.3595 45.9901C84.5367 47.3238 86.2589 48.165 88.1777 48.165C91.2971 48.165 93.8972 45.9417 94.4799 42.9933C94.5589 43.3958 94.6003 43.8118 94.6003 44.2375V45.3877C94.6003 48.9358 91.724 51.812 88.176 51.812C86.2575 51.812 84.5354 50.971 83.3583 49.6376C82.1811 50.971 80.459 51.812 78.5405 51.812C74.9925 51.812 72.1162 48.9358 72.1162 45.3878V44.2375C72.1162 43.8095 72.1581 43.3914 72.2379 42.9868Z" fill="#679A66"/>
<rect x="116.43" y="36.6724" width="4.56461" height="22.6369" fill="#93642D"/>
<rect x="116.43" y="36.4761" width="4.43987" height="17.2226" fill="#714D22"/>
<path fill-rule="evenodd" clip-rule="evenodd" d="M112.373 34.6455C112.373 31.0974 115.249 28.2212 118.797 28.2212C122.345 28.2212 125.222 31.0974 125.222 34.6455V35.7957C125.222 35.9338 125.217 36.071 125.209 36.2069C127.869 36.9928 129.81 39.4541 129.81 42.3688V43.519C129.81 47.067 126.933 49.9433 123.385 49.9433C121.467 49.9433 119.745 49.1022 118.567 47.7687C117.39 49.1022 115.668 49.9433 113.749 49.9433C110.201 49.9433 107.325 47.067 107.325 43.519V42.3688C107.325 39.2908 109.49 36.7184 112.38 36.0908C112.375 35.993 112.373 35.8946 112.373 35.7957V34.6455Z" fill="#83C082"/>
<path fill-rule="evenodd" clip-rule="evenodd" d="M113.074 23.1698C113.074 20.0948 115.567 17.6021 118.642 17.6021C121.717 17.6021 124.21 20.0948 124.21 23.1698V24.1666C124.21 24.2864 124.206 24.4053 124.198 24.5232C126.504 25.2042 128.186 27.3374 128.186 29.8636V30.8605C128.186 33.9354 125.693 36.4282 122.619 36.4282C120.956 36.4282 119.463 35.6991 118.443 34.5432C117.423 35.6991 115.93 36.4282 114.267 36.4282C111.192 36.4282 108.699 33.9354 108.699 30.8605V29.8636C108.699 27.1959 110.575 24.9665 113.08 24.4226C113.076 24.3378 113.074 24.2524 113.074 24.1666V23.1698Z" fill="#66A865"/>
<path fill-rule="evenodd" clip-rule="evenodd" d="M114.126 13.9639C114.126 11.4408 116.172 9.39551 118.695 9.39551C121.218 9.39551 123.263 11.4408 123.263 13.9639V14.7818C123.263 14.8799 123.26 14.9773 123.254 15.0738C125.146 15.632 126.528 17.3828 126.528 19.4562V20.2741C126.528 22.7972 124.482 24.8425 121.959 24.8425C120.594 24.8425 119.369 24.244 118.532 23.2952C117.695 24.244 116.47 24.8425 115.105 24.8425C112.582 24.8425 110.537 22.7972 110.537 20.2741V19.4562C110.537 17.2676 112.076 15.4384 114.131 14.992C114.128 14.9223 114.126 14.8523 114.126 14.7818V13.9639Z" fill="#83C082"/>
<path fill-rule="evenodd" clip-rule="evenodd" d="M107.394 41.0903C107.974 44.042 110.576 46.2686 113.698 46.2686C115.616 46.2686 117.338 45.4276 118.515 44.0941C119.693 45.4276 121.415 46.2686 123.333 46.2686C126.453 46.2686 129.054 44.0443 129.636 41.0949C129.715 41.498 129.757 41.9146 129.757 42.341V43.4912C129.757 47.0393 126.88 49.9155 123.332 49.9155C121.414 49.9155 119.692 49.0745 118.515 47.7411C117.337 49.0745 115.615 49.9155 113.697 49.9155C110.149 49.9155 107.272 47.0393 107.272 43.4912V42.341C107.272 41.913 107.314 41.4949 107.394 41.0903Z" fill="#679A66"/>
<rect x="219.195" y="44.2583" width="4.56461" height="22.6369" fill="#93642D"/>
<rect x="219.195" y="44.062" width="4.43987" height="17.2226" fill="#714D22"/>
<path fill-rule="evenodd" clip-rule="evenodd" d="M215.136 42.2314C215.136 38.6834 218.013 35.8071 221.561 35.8071C225.109 35.8071 227.985 38.6834 227.985 42.2314V43.3816C227.985 43.5197 227.981 43.6567 227.972 43.7926C230.632 44.5782 232.574 47.0397 232.574 49.9547V51.1049C232.574 54.653 229.698 57.5292 226.15 57.5292C224.231 57.5292 222.509 56.688 221.331 55.3543C220.154 56.688 218.432 57.5292 216.513 57.5292C212.965 57.5292 210.089 54.653 210.089 51.105V49.9547C210.089 46.8769 212.253 44.3045 215.143 43.6768C215.139 43.579 215.136 43.4806 215.136 43.3817V42.2314Z" fill="#83C082"/>
<path fill-rule="evenodd" clip-rule="evenodd" d="M215.842 30.7557C215.842 27.6807 218.334 25.188 221.409 25.188C224.484 25.188 226.977 27.6807 226.977 30.7557V31.7526C226.977 31.8725 226.973 31.9914 226.966 32.1094C229.271 32.7907 230.953 34.9237 230.953 37.4495V38.4464C230.953 41.5214 228.46 44.0141 225.385 44.0141C223.722 44.0141 222.229 43.2851 221.209 42.1293C220.189 43.2851 218.696 44.0141 217.034 44.0141C213.959 44.0141 211.466 41.5213 211.466 38.4464V37.4495C211.466 34.7816 213.342 32.552 215.847 32.0084C215.844 31.9236 215.842 31.8383 215.842 31.7526V30.7557Z" fill="#66A865"/>
<path fill-rule="evenodd" clip-rule="evenodd" d="M216.891 21.5498C216.891 19.0268 218.936 16.9814 221.459 16.9814C223.982 16.9814 226.027 19.0268 226.027 21.5498V22.3678C226.027 22.4659 226.024 22.5634 226.018 22.66C227.91 23.2186 229.291 24.9691 229.291 27.0421V27.86C229.291 30.3831 227.246 32.4284 224.723 32.4284C223.358 32.4284 222.133 31.8302 221.296 30.8818C220.459 31.8302 219.235 32.4284 217.87 32.4284C215.347 32.4284 213.302 30.3831 213.302 27.86V27.0421C213.302 24.8535 214.841 23.0244 216.895 22.5779C216.892 22.5082 216.891 22.4382 216.891 22.3678V21.5498Z" fill="#83C082"/>
<path fill-rule="evenodd" clip-rule="evenodd" d="M210.158 48.6782C210.739 51.629 213.341 53.8547 216.462 53.8547C218.38 53.8547 220.102 53.0136 221.28 51.68C222.457 53.0136 224.179 53.8547 226.098 53.8547C229.218 53.8547 231.819 51.6296 232.401 48.6793C232.48 49.083 232.522 49.5002 232.522 49.9272V51.0774C232.522 54.6255 229.645 57.5017 226.097 57.5017C224.179 57.5017 222.457 56.6606 221.279 55.327C220.102 56.6606 218.38 57.5017 216.461 57.5017C212.913 57.5017 210.037 54.6255 210.037 51.0774V49.9272C210.037 49.4998 210.079 49.0822 210.158 48.6782Z" fill="#679A66"/>
<rect x="146.178" y="33.8276" width="4.56461" height="22.6369" fill="#93642D"/>
<rect x="146.178" y="33.6313" width="4.43987" height="17.2226" fill="#714D22"/>
<path fill-rule="evenodd" clip-rule="evenodd" d="M142.119 31.8007C142.119 28.2527 144.995 25.3765 148.543 25.3765C152.091 25.3765 154.967 28.2527 154.967 31.8007V32.951C154.967 33.089 154.963 33.2261 154.955 33.362C157.615 34.1476 159.556 36.6091 159.556 39.524V40.6743C159.556 44.2223 156.68 47.0986 153.132 47.0986C151.213 47.0986 149.491 46.2574 148.314 44.9237C147.137 46.2574 145.414 47.0986 143.496 47.0986C139.948 47.0986 137.071 44.2223 137.071 40.6743V39.524C137.071 36.4462 139.236 33.8739 142.126 33.2462C142.121 33.1483 142.119 33.0499 142.119 32.951V31.8007Z" fill="#83C082"/>
<path fill-rule="evenodd" clip-rule="evenodd" d="M142.823 20.3245C142.823 17.2496 145.316 14.7568 148.391 14.7568C151.466 14.7568 153.958 17.2496 153.958 20.3245V21.3214C153.958 21.4413 153.955 21.5603 153.947 21.6782C156.252 22.3595 157.934 24.4925 157.934 27.0184V28.0152C157.934 31.0902 155.441 33.5829 152.366 33.5829C150.704 33.5829 149.211 32.8539 148.191 31.698C147.171 32.8539 145.678 33.5829 144.015 33.5829C140.94 33.5829 138.447 31.0902 138.447 28.0152V27.0183C138.447 24.3504 140.324 22.1208 142.829 21.5773C142.825 21.4925 142.823 21.4072 142.823 21.3214V20.3245Z" fill="#66A865"/>
<path fill-rule="evenodd" clip-rule="evenodd" d="M143.872 11.1192C143.872 8.59611 145.918 6.55078 148.441 6.55078C150.964 6.55078 153.009 8.59611 153.009 11.1192V11.9371C153.009 12.0352 153.006 12.1326 153 12.2292C154.892 12.7876 156.273 14.5382 156.273 16.6113V17.4293C156.273 19.9523 154.228 21.9976 151.704 21.9976C150.34 21.9976 149.116 21.3996 148.279 20.4514C147.441 21.3996 146.217 21.9976 144.853 21.9976C142.33 21.9976 140.284 19.9523 140.284 17.4293V16.6113C140.284 14.4231 141.823 12.5942 143.877 12.1473C143.874 12.0776 143.872 12.0076 143.872 11.9371V11.1192Z" fill="#83C082"/>
<path fill-rule="evenodd" clip-rule="evenodd" d="M137.141 38.2437C137.72 41.1963 140.322 43.4239 143.445 43.4239C145.363 43.4239 147.085 42.583 148.262 41.2495C149.439 42.583 151.162 43.4239 153.08 43.4239C156.199 43.4239 158.8 41.2007 159.382 38.2524C159.461 38.6549 159.503 39.0708 159.503 39.4964V40.6466C159.503 44.1947 156.626 47.0709 153.078 47.0709C151.16 47.0709 149.438 46.2299 148.261 44.8965C147.083 46.2299 145.361 47.0709 143.443 47.0709C139.895 47.0709 137.019 44.1947 137.019 40.6467V39.4964C137.019 39.0677 137.061 38.6488 137.141 38.2437Z" fill="#679A66"/>
<rect x="184.941" y="30.9829" width="4.56461" height="22.6369" fill="#93642D"/>
<rect x="184.941" y="30.7866" width="4.43987" height="17.2226" fill="#714D22"/>
<path fill-rule="evenodd" clip-rule="evenodd" d="M180.883 28.956C180.883 25.408 183.759 22.5317 187.307 22.5317C190.855 22.5317 193.731 25.408 193.731 28.956V30.1063C193.731 30.2444 193.727 30.3816 193.718 30.5176C196.378 31.3034 198.319 33.7647 198.319 36.6794V37.8296C198.319 41.3777 195.443 44.2539 191.895 44.2539C189.976 44.2539 188.254 43.4129 187.077 42.0794C185.9 43.4129 184.178 44.2539 182.259 44.2539C178.711 44.2539 175.835 41.3777 175.835 37.8296V36.6794C175.835 33.6015 177.999 31.0291 180.889 30.4015C180.885 30.3036 180.883 30.2052 180.883 30.1063V28.956Z" fill="#83C082"/>
<path fill-rule="evenodd" clip-rule="evenodd" d="M181.588 17.4803C181.588 14.4053 184.08 11.9126 187.155 11.9126C190.23 11.9126 192.723 14.4053 192.723 17.4803V18.4772C192.723 18.597 192.719 18.716 192.712 18.834C195.017 19.5152 196.699 21.6483 196.699 24.1741V25.171C196.699 28.246 194.206 30.7387 191.131 30.7387C189.468 30.7387 187.976 30.0097 186.955 28.8538C185.935 30.0097 184.443 30.7387 182.78 30.7387C179.705 30.7387 177.212 28.246 177.212 25.171V24.1741C177.212 21.5062 179.088 19.2766 181.593 18.733C181.59 18.6482 181.588 18.5629 181.588 18.4772V17.4803Z" fill="#66A865"/>
<path fill-rule="evenodd" clip-rule="evenodd" d="M182.638 8.27443C182.638 5.75138 184.684 3.70605 187.207 3.70605C189.73 3.70605 191.775 5.75139 191.775 8.27443V9.09238C191.775 9.19056 191.772 9.28801 191.766 9.38465C193.658 9.94316 195.039 11.6937 195.039 13.7667V14.5847C195.039 17.1077 192.993 19.153 190.47 19.153C189.106 19.153 187.881 18.5547 187.044 17.606C186.207 18.5547 184.982 19.153 183.617 19.153C181.094 19.153 179.049 17.1077 179.049 14.5847V13.7667C179.049 11.5779 180.588 9.74866 182.643 9.30239C182.64 9.23278 182.638 9.16277 182.638 9.09238V8.27443Z" fill="#83C082"/>
<path fill-rule="evenodd" clip-rule="evenodd" d="M175.906 35.4038C176.488 38.3541 179.089 40.5792 182.209 40.5792C184.128 40.5792 185.85 39.7381 187.027 38.4045C188.204 39.7381 189.927 40.5792 191.845 40.5792C194.966 40.5792 197.568 38.3536 198.149 35.4028C198.228 35.8068 198.27 36.2244 198.27 36.6517V37.8019C198.27 41.3499 195.394 44.2262 191.846 44.2262C189.927 44.2262 188.205 43.3851 187.027 42.0515C185.85 43.3851 184.128 44.2262 182.209 44.2262C178.661 44.2262 175.785 41.3499 175.785 37.8019V36.6517C175.785 36.2247 175.827 35.8075 175.906 35.4038Z" fill="#679A66"/>
<rect x="19.0742" y="34.7759" width="4.56461" height="22.6369" fill="#93642D"/>
<rect x="19.0742" y="34.5796" width="4.43987" height="17.2226" fill="#714D22"/>
<path fill-rule="evenodd" clip-rule="evenodd" d="M15.0164 32.749C15.0164 29.201 17.8927 26.3247 21.4407 26.3247C24.9887 26.3247 27.865 29.201 27.865 32.749V33.8992C27.865 34.0374 27.8606 34.1745 27.852 34.3105C30.5119 35.0964 32.4529 37.5576 32.4529 40.4723V41.6225C32.4529 45.1705 29.5766 48.0468 26.0286 48.0468C24.1101 48.0468 22.388 47.2058 21.2108 45.8724C20.0337 47.2058 18.3115 48.0468 16.393 48.0468C12.845 48.0468 9.96875 45.1706 9.96875 41.6225V40.4723C9.96875 37.3944 12.1332 34.8221 15.0231 34.1944C15.0187 34.0966 15.0164 33.9982 15.0164 33.8992V32.749Z" fill="#83C082"/>
<path fill-rule="evenodd" clip-rule="evenodd" d="M15.7198 21.2728C15.7198 18.1978 18.2125 15.7051 21.2875 15.7051C24.3624 15.7051 26.8552 18.1978 26.8552 21.2728V22.2697C26.8552 22.3895 26.8514 22.5084 26.8439 22.6263C29.1493 23.3073 30.8316 25.4405 30.8316 27.9666V28.9635C30.8316 32.0384 28.3389 34.5312 25.2639 34.5312C23.6007 34.5312 22.1079 33.8019 21.0877 32.6458C20.0675 33.8019 18.5746 34.5312 16.9115 34.5312C13.8365 34.5312 11.3438 32.0384 11.3438 28.9635V27.9666C11.3438 25.2986 13.2203 23.0689 15.7255 22.5255C15.7217 22.4407 15.7198 22.3554 15.7198 22.2697V21.2728Z" fill="#66A865"/>
<path fill-rule="evenodd" clip-rule="evenodd" d="M16.7706 12.0674C16.7706 9.54435 18.8159 7.49902 21.339 7.49902C23.862 7.49902 25.9073 9.54435 25.9073 12.0674V12.8854C25.9073 12.9835 25.9042 13.081 25.8981 13.1776C27.7902 13.7361 29.171 15.4866 29.171 17.5597V18.3776C29.171 20.9007 27.1257 22.946 24.6026 22.946C23.2379 22.946 22.0129 22.3476 21.1758 21.3988C20.3387 22.3476 19.1138 22.946 17.749 22.946C15.226 22.946 13.1807 20.9007 13.1807 18.3776V17.5597C13.1807 15.3708 14.7201 13.5415 16.7753 13.0953C16.7722 13.0257 16.7706 12.9557 16.7706 12.8854V12.0674Z" fill="#83C082"/>
<path fill-rule="evenodd" clip-rule="evenodd" d="M10.0374 39.1958C10.6183 42.1464 13.2195 44.372 16.3405 44.372C18.259 44.372 19.9811 43.531 21.1583 42.1976C22.3354 43.531 24.0575 44.372 25.976 44.372C29.0967 44.372 31.6976 42.1469 32.279 39.1968C32.3584 39.6005 32.4001 40.0178 32.4001 40.4449V41.5951C32.4001 45.1431 29.5239 48.0194 25.9758 48.0194C24.0573 48.0194 22.3352 47.1784 21.1581 45.845C19.9809 47.1784 18.2588 48.0194 16.3403 48.0194C12.7923 48.0194 9.91602 45.1431 9.91602 41.5951V40.4449C9.91602 40.0175 9.95775 39.5998 10.0374 39.1958Z" fill="#679A66"/>
<rect x="246.239" y="30.0342" width="4.56461" height="22.6369" fill="#93642D"/>
<rect x="246.239" y="29.8379" width="4.43987" height="17.2226" fill="#714D22"/>
<path fill-rule="evenodd" clip-rule="evenodd" d="M242.18 28.0073C242.18 24.4593 245.057 21.583 248.605 21.583C252.153 21.583 255.029 24.4593 255.029 28.0073V29.1575C255.029 29.2957 255.025 29.4328 255.016 29.5687C257.676 30.3546 259.617 32.8159 259.617 35.7306V36.8808C259.617 40.4289 256.741 43.3051 253.193 43.3051C251.274 43.3051 249.552 42.4641 248.375 41.1307C247.198 42.4641 245.476 43.3051 243.557 43.3051C240.009 43.3051 237.133 40.4289 237.133 36.8808V35.7306C237.133 32.6528 239.297 30.0805 242.187 29.4527C242.183 29.3549 242.18 29.2565 242.18 29.1575V28.0073Z" fill="#83C082"/>
<path fill-rule="evenodd" clip-rule="evenodd" d="M242.885 16.5316C242.885 13.4566 245.377 10.9639 248.452 10.9639C251.527 10.9639 254.02 13.4566 254.02 16.5316V17.5285C254.02 17.6483 254.016 17.7673 254.009 17.8853C256.314 18.5665 257.996 20.6995 257.996 23.2254V24.2223C257.996 27.2973 255.503 29.79 252.428 29.79C250.765 29.79 249.272 29.061 248.252 27.9051C247.232 29.061 245.739 29.79 244.076 29.79C241.002 29.79 238.509 27.2973 238.509 24.2223V23.2254C238.509 20.5575 240.385 18.3279 242.89 17.7843C242.887 17.6995 242.885 17.6142 242.885 17.5285V16.5316Z" fill="#66A865"/>
<path fill-rule="evenodd" clip-rule="evenodd" d="M243.934 7.3257C243.934 4.80265 245.979 2.75732 248.502 2.75732C251.025 2.75732 253.071 4.80266 253.071 7.3257V8.14365C253.071 8.2418 253.067 8.33923 253.061 8.43585C254.953 8.99427 256.334 10.7449 256.334 12.818V13.6359C256.334 16.159 254.289 18.2043 251.766 18.2043C250.401 18.2043 249.177 17.606 248.34 16.6575C247.502 17.606 246.278 18.2043 244.913 18.2043C242.39 18.2043 240.345 16.159 240.345 13.6359V12.818C240.345 10.6294 241.884 8.80028 243.939 8.35378C243.935 8.28413 243.934 8.21408 243.934 8.14365V7.3257Z" fill="#83C082"/>
<path fill-rule="evenodd" clip-rule="evenodd" d="M237.201 34.4536C237.782 37.4046 240.383 39.6306 243.505 39.6306C245.423 39.6306 247.145 38.7896 248.322 37.4562C249.5 38.7896 251.222 39.6306 253.14 39.6306C256.261 39.6306 258.862 37.4056 259.443 34.4556C259.523 34.8591 259.564 35.2761 259.564 35.7029V36.8531C259.564 40.4012 256.688 43.2774 253.14 43.2774C251.221 43.2774 249.499 42.4364 248.322 41.103C247.145 42.4364 245.423 43.2774 243.504 43.2774C239.956 43.2774 237.08 40.4012 237.08 36.8531V35.7029C237.08 35.2754 237.122 34.8577 237.201 34.4536Z" fill="#679A66"/>
<rect x="288.606" y="40.4653" width="4.56461" height="22.6369" fill="#93642D"/>
<rect x="288.606" y="40.269" width="4.43987" height="17.2226" fill="#714D22"/>
<path fill-rule="evenodd" clip-rule="evenodd" d="M284.549 38.4384C284.549 34.8904 287.426 32.0142 290.974 32.0142C294.522 32.0142 297.398 34.8904 297.398 38.4384V39.5887C297.398 39.7268 297.394 39.8639 297.385 39.9999C300.045 40.7858 301.986 43.2471 301.986 46.1617V47.312C301.986 50.86 299.11 53.7363 295.562 53.7363C293.643 53.7363 291.921 52.8953 290.744 51.5619C289.567 52.8953 287.845 53.7363 285.926 53.7363C282.378 53.7363 279.502 50.86 279.502 47.312V46.1617C279.502 43.0839 281.666 40.5116 284.556 39.8839C284.552 39.786 284.549 39.6876 284.549 39.5887V38.4384Z" fill="#83C082"/>
<path fill-rule="evenodd" clip-rule="evenodd" d="M285.252 26.9627C285.252 23.8878 287.745 21.395 290.82 21.395C293.895 21.395 296.387 23.8878 296.387 26.9627V27.9596C296.387 28.0795 296.384 28.1984 296.376 28.3164C298.681 28.9977 300.363 31.1307 300.363 33.6565V34.6534C300.363 37.7284 297.87 40.2211 294.795 40.2211C293.132 40.2211 291.64 39.4921 290.619 38.3362C289.599 39.4921 288.107 40.2211 286.444 40.2211C283.369 40.2211 280.876 37.7284 280.876 34.6534V33.6565C280.876 30.9886 282.752 28.7589 285.258 28.2154C285.254 28.1306 285.252 28.0453 285.252 27.9596V26.9627Z" fill="#66A865"/>
<path fill-rule="evenodd" clip-rule="evenodd" d="M286.301 17.7568C286.301 15.2338 288.346 13.1885 290.869 13.1885C293.392 13.1885 295.438 15.2338 295.438 17.7569V18.5748C295.438 18.673 295.435 18.7704 295.428 18.8671C297.321 19.4255 298.701 21.1761 298.701 23.2491V24.0671C298.701 26.5901 296.656 28.6355 294.133 28.6355C292.768 28.6355 291.544 28.0372 290.707 27.0888C289.87 28.0372 288.645 28.6354 287.28 28.6354C284.757 28.6354 282.712 26.5901 282.712 24.0671V23.2491C282.712 21.0606 284.251 19.2315 286.306 18.7849C286.303 18.7153 286.301 18.6452 286.301 18.5748V17.7568Z" fill="#83C082"/>
<path fill-rule="evenodd" clip-rule="evenodd" d="M279.569 44.8828C280.149 47.8347 282.751 50.0616 285.873 50.0616C287.791 50.0616 289.513 49.2206 290.69 47.8872C291.868 49.2206 293.59 50.0616 295.508 50.0616C298.628 50.0616 301.229 47.8375 301.811 44.8883C301.89 45.2912 301.931 45.7077 301.931 46.1338V47.2841C301.931 50.8321 299.055 53.7084 295.507 53.7084C293.589 53.7084 291.866 52.8674 290.689 51.534C289.512 52.8674 287.79 53.7084 285.872 53.7084C282.324 53.7084 279.447 50.8321 279.447 47.2841V46.1338C279.447 45.7058 279.489 45.2875 279.569 44.8828Z" fill="#679A66"/>
<rect x="97.501" y="48.0518" width="4.56461" height="22.6369" fill="#93642D"/>
<rect x="97.501" y="47.8555" width="4.43987" height="17.2226" fill="#714D22"/>
<path fill-rule="evenodd" clip-rule="evenodd" d="M93.442 46.0249C93.442 42.4768 96.3183 39.6006 99.8663 39.6006C103.414 39.6006 106.291 42.4768 106.291 46.0249V47.1751C106.291 47.3132 106.286 47.4503 106.278 47.5863C108.938 48.3722 110.879 50.8335 110.879 53.7482V54.8984C110.879 58.4464 108.002 61.3227 104.454 61.3227C102.536 61.3227 100.814 60.4817 99.6366 59.1483C98.4594 60.4817 96.7373 61.3227 94.8188 61.3227C91.2708 61.3227 88.3945 58.4464 88.3945 54.8984V53.7482C88.3945 50.6703 90.5589 48.098 93.4487 47.4703C93.4443 47.3725 93.442 47.274 93.442 47.1751V46.0249Z" fill="#83C082"/>
<path fill-rule="evenodd" clip-rule="evenodd" d="M94.1467 34.5491C94.1467 31.4742 96.6394 28.9814 99.7144 28.9814C102.789 28.9814 105.282 31.4742 105.282 34.5491V35.546C105.282 35.6659 105.278 35.7849 105.271 35.9028C107.576 36.584 109.258 38.7171 109.258 41.243V42.2399C109.258 45.3148 106.765 47.8076 103.69 47.8076C102.027 47.8076 100.534 47.0784 99.5142 45.9224C98.494 47.0784 97.0013 47.8076 95.3382 47.8076C92.2633 47.8076 89.7705 45.3148 89.7705 42.2399V41.243C89.7705 38.5749 91.6472 36.3452 94.1525 35.8018C94.1486 35.717 94.1467 35.6318 94.1467 35.546V34.5491Z" fill="#66A865"/>
<path fill-rule="evenodd" clip-rule="evenodd" d="M95.1945 25.3433C95.1945 22.8202 97.2398 20.7749 99.7628 20.7749C102.286 20.7749 104.331 22.8202 104.331 25.3433V26.1612C104.331 26.2594 104.328 26.3569 104.322 26.4535C106.214 27.012 107.595 28.7625 107.595 30.8356V31.6535C107.595 34.1766 105.55 36.2219 103.027 36.2219C101.662 36.2219 100.437 35.6237 99.6002 34.6752C98.7631 35.6237 97.5383 36.2219 96.1738 36.2219C93.6508 36.2219 91.6055 34.1766 91.6055 31.6535V30.8356C91.6055 28.647 93.1444 26.8179 95.1992 26.3714C95.1961 26.3017 95.1945 26.2317 95.1945 26.1612V25.3433Z" fill="#83C082"/>
<path fill-rule="evenodd" clip-rule="evenodd" d="M88.465 52.4717C89.0459 55.4223 91.6471 57.6479 94.7681 57.6479C96.6867 57.6479 98.4089 56.8068 99.5861 55.4732C100.763 56.8068 102.485 57.6479 104.404 57.6479C107.525 57.6479 110.126 55.4228 110.707 52.4727C110.786 52.8762 110.828 53.2933 110.828 53.7202V54.8704C110.828 58.4184 107.952 61.2947 104.404 61.2947C102.485 61.2947 100.763 60.4537 99.5859 59.1202C98.4087 60.4537 96.6866 61.2947 94.768 61.2947C91.22 61.2947 88.3438 58.4184 88.3438 54.8704V53.7202C88.3438 53.293 88.3854 52.8755 88.465 52.4717Z" fill="#679A66"/>
<rect x="117.332" y="67.9653" width="4.56461" height="22.6369" fill="#93642D"/>
<rect x="117.332" y="67.769" width="4.43987" height="17.2226" fill="#714D22"/>
<path fill-rule="evenodd" clip-rule="evenodd" d="M113.274 65.9384C113.274 62.3904 116.15 59.5142 119.698 59.5142C123.246 59.5142 126.123 62.3904 126.123 65.9384V67.0887C126.123 67.2268 126.118 67.364 126.11 67.5C128.77 68.2858 130.711 70.7471 130.711 73.6618V74.8121C130.711 78.3601 127.834 81.2364 124.286 81.2364C122.368 81.2364 120.646 80.3954 119.469 79.0619C118.292 80.3954 116.569 81.2364 114.651 81.2364C111.103 81.2364 108.227 78.3601 108.227 74.8121V73.6619C108.227 70.584 110.391 68.0117 113.281 67.384C113.276 67.2861 113.274 67.1877 113.274 67.0887V65.9384Z" fill="#83C082"/>
<path fill-rule="evenodd" clip-rule="evenodd" d="M113.978 54.4627C113.978 51.3878 116.47 48.895 119.545 48.895C122.62 48.895 125.113 51.3878 125.113 54.4627V55.4596C125.113 55.5794 125.109 55.6983 125.102 55.8162C127.407 56.4972 129.09 58.6304 129.09 61.1565V62.1534C129.09 65.2284 126.597 67.7211 123.522 67.7211C121.859 67.7211 120.366 66.9918 119.346 65.8356C118.325 66.9918 116.832 67.7211 115.169 67.7211C112.094 67.7211 109.602 65.2284 109.602 62.1534V61.1565C109.602 58.4885 111.478 56.2588 113.983 55.7154C113.98 55.6306 113.978 55.5453 113.978 55.4596V54.4627Z" fill="#66A865"/>
<path fill-rule="evenodd" clip-rule="evenodd" d="M115.027 45.2568C115.027 42.7338 117.072 40.6885 119.595 40.6885C122.118 40.6885 124.163 42.7338 124.163 45.2569V46.0748C124.163 46.173 124.16 46.2704 124.154 46.3671C126.046 46.9255 127.427 48.6761 127.427 50.7492V51.5671C127.427 54.0902 125.382 56.1355 122.859 56.1355C121.494 56.1355 120.269 55.5373 119.432 54.5887C118.595 55.5373 117.37 56.1355 116.006 56.1355C113.483 56.1355 111.438 54.0902 111.438 51.5671V50.7492C111.438 48.5606 112.977 46.7315 115.031 46.285C115.028 46.2153 115.027 46.1452 115.027 46.0748V45.2568Z" fill="#83C082"/>
<path fill-rule="evenodd" clip-rule="evenodd" d="M108.295 72.3765C108.872 75.3317 111.476 77.5619 114.6 77.5619C116.518 77.5619 118.241 76.7208 119.418 75.3873C120.595 76.7208 122.317 77.5618 124.236 77.5618C127.353 77.5618 129.952 75.3415 130.537 72.396C130.615 72.7966 130.656 73.2106 130.656 73.6342V74.7844C130.656 78.3324 127.78 81.2087 124.232 81.2087C122.313 81.2087 120.591 80.3677 119.414 79.0343C118.237 80.3677 116.515 81.2087 114.596 81.2087C111.048 81.2087 108.172 78.3324 108.172 74.7844V73.6342C108.172 73.2037 108.214 72.7832 108.295 72.3765Z" fill="#679A66"/>
<rect x="95.6973" y="79.3452" width="4.56461" height="22.6369" fill="#93642D"/>
<rect x="95.6973" y="79.1489" width="4.43987" height="17.2226" fill="#714D22"/>
<path fill-rule="evenodd" clip-rule="evenodd" d="M91.639 77.3183C91.639 73.7703 94.5152 70.894 98.0633 70.894C101.611 70.894 104.488 73.7703 104.488 77.3183V78.4686C104.488 78.6067 104.483 78.7439 104.475 78.8799C107.134 79.6658 109.075 82.1271 109.075 85.0416V86.1919C109.075 89.7399 106.199 92.6161 102.651 92.6161C100.732 92.6161 99.0102 91.7751 97.833 90.4416C96.6559 91.7751 94.9337 92.6161 93.0151 92.6161C89.4671 92.6161 86.5908 89.7399 86.5908 86.1919V85.0416C86.5908 81.9636 88.7555 79.3911 91.6456 78.7636C91.6412 78.6658 91.639 78.5675 91.639 78.4686V77.3183Z" fill="#83C082"/>
<path fill-rule="evenodd" clip-rule="evenodd" d="M92.3429 65.8426C92.3429 62.7676 94.8357 60.2749 97.9107 60.2749C100.986 60.2749 103.478 62.7676 103.478 65.8426V66.8395C103.478 66.9593 103.475 67.0781 103.467 67.196C105.773 67.877 107.455 70.0102 107.455 72.5364V73.5333C107.455 76.6082 104.962 79.101 101.887 79.101C100.224 79.101 98.7315 78.3719 97.7113 77.216C96.6911 78.3719 95.1984 79.101 93.5355 79.101C90.4605 79.101 87.9678 76.6082 87.9678 73.5333V72.5364C87.9678 69.8687 89.8439 67.6392 92.3487 67.0955C92.3449 67.0106 92.3429 66.9253 92.3429 66.8395V65.8426Z" fill="#66A865"/>
<path fill-rule="evenodd" clip-rule="evenodd" d="M93.3916 56.6367C93.3916 54.1137 95.4369 52.0684 97.96 52.0684C100.483 52.0684 102.528 54.1137 102.528 56.6367V57.4547C102.528 57.5528 102.525 57.6501 102.519 57.7466C104.412 58.3048 105.793 60.0556 105.793 62.129V62.9469C105.793 65.47 103.748 67.5153 101.225 67.5153C99.8602 67.5153 98.6354 66.9171 97.7984 65.9687C96.9613 66.9171 95.7365 67.5153 94.3721 67.5153C91.849 67.5153 89.8037 65.47 89.8037 62.9469V62.129C89.8037 59.9408 91.3421 58.112 93.3964 57.665C93.3932 57.5953 93.3916 57.5252 93.3916 57.4547V56.6367Z" fill="#83C082"/>
<path fill-rule="evenodd" clip-rule="evenodd" d="M86.6608 83.7627C87.241 86.7144 89.8426 88.9409 92.9644 88.9409C94.8829 88.9409 96.6051 88.0999 97.7822 86.7664C98.9594 88.0999 100.682 88.9409 102.6 88.9409C105.72 88.9409 108.32 86.7169 108.903 83.7678C108.982 84.1709 109.023 84.5875 109.023 85.0139V86.1641C109.023 89.7122 106.147 92.5884 102.599 92.5884C100.681 92.5884 98.9584 91.7474 97.7812 90.4139C96.6041 91.7474 94.8819 92.5884 92.9633 92.5884C89.4153 92.5884 86.5391 89.7122 86.5391 86.1642V85.0139C86.5391 84.5858 86.5809 84.1674 86.6608 83.7627Z" fill="#679A66"/>
<rect x="72.2578" y="64.1729" width="4.56461" height="22.6369" fill="#93642D"/>
<rect x="72.2578" y="63.9766" width="4.43987" height="17.2226" fill="#714D22"/>
<path fill-rule="evenodd" clip-rule="evenodd" d="M68.201 62.146C68.201 58.5979 71.0772 55.7217 74.6253 55.7217C78.1733 55.7217 81.0495 58.5979 81.0495 62.146V63.2962C81.0495 63.4343 81.0452 63.5714 81.0366 63.7074C83.6965 64.4933 85.6374 66.9546 85.6374 69.8692V71.0195C85.6374 74.5675 82.7612 77.4437 79.2132 77.4437C77.2944 77.4437 75.572 76.6025 74.3949 75.2688C73.2177 76.6025 71.4954 77.4437 69.5766 77.4437C66.0286 77.4437 63.1523 74.5675 63.1523 71.0195V69.8692C63.1523 66.791 65.3173 64.2184 68.2076 63.5911C68.2032 63.4934 68.201 63.395 68.201 63.2962V62.146Z" fill="#83C082"/>
<path fill-rule="evenodd" clip-rule="evenodd" d="M68.9024 50.6698C68.9024 47.5948 71.3951 45.1021 74.4701 45.1021C77.545 45.1021 80.0378 47.5948 80.0378 50.6698V51.6666C80.0378 51.7864 80.034 51.9053 80.0265 52.0232C82.3319 52.7042 84.0143 54.8374 84.0143 57.3635V58.3604C84.0143 61.4354 81.5215 63.9281 78.4466 63.9281C76.7836 63.9281 75.291 63.1991 74.2708 62.0432C73.2506 63.1991 71.758 63.9281 70.095 63.9281C67.0201 63.9281 64.5273 61.4354 64.5273 58.3604V57.3635C64.5273 54.6959 66.4034 52.4665 68.9081 51.9226C68.9043 51.8378 68.9024 51.7524 68.9024 51.6666V50.6698Z" fill="#66A865"/>
<path fill-rule="evenodd" clip-rule="evenodd" d="M69.9537 41.4644C69.9537 38.9413 71.999 36.896 74.5221 36.896C77.0451 36.896 79.0904 38.9413 79.0904 41.4644V42.2823C79.0904 42.3805 79.0874 42.4779 79.0813 42.5745C80.9734 43.1329 82.3543 44.8835 82.3543 46.9566V47.7746C82.3543 50.2976 80.309 52.343 77.7859 52.343C76.4213 52.343 75.1964 51.7446 74.3593 50.796C73.5222 51.7446 72.2973 52.343 70.9326 52.343C68.4096 52.343 66.3643 50.2976 66.3643 47.7746V46.9566C66.3643 44.7679 67.9034 42.9387 69.9584 42.4924C69.9553 42.4227 69.9537 42.3527 69.9537 42.2823V41.4644Z" fill="#83C082"/>
<path fill-rule="evenodd" clip-rule="evenodd" d="M63.2212 68.5908C63.8015 71.5423 66.4031 73.7686 69.5247 73.7686C71.4435 73.7686 73.1659 72.9274 74.343 71.5935C75.5202 72.9274 77.2426 73.7686 79.1614 73.7686C82.2807 73.7686 84.8807 71.5455 85.4636 68.5973C85.5425 68.9998 85.5839 69.4157 85.5839 69.8413V70.9915C85.5839 74.5395 82.7077 77.4158 79.1596 77.4158C77.2411 77.4158 75.5189 76.5748 74.3418 75.2413C73.1646 76.5748 71.4425 77.4158 69.5239 77.4158C65.9759 77.4158 63.0996 74.5395 63.0996 70.9915V69.8413C63.0996 69.4134 63.1414 68.9953 63.2212 68.5908Z" fill="#679A66"/>
<rect x="46.1191" y="59.4307" width="4.56461" height="22.6369" fill="#93642D"/>
<rect x="46.1191" y="59.2349" width="4.43987" height="17.2226" fill="#714D22"/>
<path fill-rule="evenodd" clip-rule="evenodd" d="M42.0609 57.4038C42.0609 53.8557 44.9372 50.9795 48.4852 50.9795C52.0332 50.9795 54.9095 53.8557 54.9095 57.4038V58.554C54.9095 58.6922 54.9051 58.8293 54.8965 58.9653C57.5563 59.7513 59.4971 62.2125 59.4971 65.1271V66.2773C59.4971 69.8253 56.6209 72.7016 53.0729 72.7016C51.1542 72.7016 49.4321 71.8605 48.2549 70.527C47.0778 71.8605 45.3556 72.7016 43.437 72.7016C39.8889 72.7016 37.0127 69.8253 37.0127 66.2773V65.1271C37.0127 62.049 39.1775 59.4765 42.0676 58.849C42.0632 58.7513 42.0609 58.6529 42.0609 58.554V57.4038Z" fill="#83C082"/>
<path fill-rule="evenodd" clip-rule="evenodd" d="M42.7639 45.9281C42.7639 42.8531 45.2567 40.3604 48.3316 40.3604C51.4066 40.3604 53.8994 42.8531 53.8994 45.9281V46.9249C53.8994 47.0443 53.8956 47.1628 53.8882 47.2804C56.1957 47.96 57.88 50.0943 57.88 52.6219V53.6188C57.88 56.6937 55.3873 59.1865 52.3123 59.1865C50.6482 59.1865 49.1546 58.4564 48.1343 57.2991C47.1141 58.4564 45.6205 59.1864 43.9564 59.1864C40.8814 59.1864 38.3887 56.6937 38.3887 53.6187V52.6219C38.3887 49.9541 40.2649 47.7246 42.7697 47.1809C42.7659 47.096 42.7639 47.0107 42.7639 46.9249V45.9281Z" fill="#66A865"/>
<path fill-rule="evenodd" clip-rule="evenodd" d="M43.8135 36.7222C43.8135 34.1991 45.8589 32.1538 48.3819 32.1538C50.905 32.1538 52.9503 34.1991 52.9503 36.7222V37.5401C52.9503 37.6382 52.9472 37.7356 52.9411 37.8321C54.8337 38.3903 56.2149 40.1411 56.2149 42.2145V43.0324C56.2149 45.5555 54.1696 47.6008 51.6466 47.6008C50.2821 47.6008 49.0573 47.0026 48.2203 46.0542C47.3832 47.0026 46.1584 47.6008 44.794 47.6008C42.2709 47.6008 40.2256 45.5554 40.2256 43.0324V42.2144C40.2256 40.0263 41.764 38.1974 43.8183 37.7505C43.8151 37.6808 43.8135 37.6106 43.8135 37.5401V36.7222Z" fill="#83C082"/>
<path fill-rule="evenodd" clip-rule="evenodd" d="M37.0837 63.8481C37.6636 66.8001 40.2654 69.0269 43.3873 69.0269C45.3059 69.0269 47.028 68.1859 48.2051 66.8524C49.3823 68.1859 51.1044 69.0269 53.023 69.0269C56.1429 69.0269 58.7434 66.8028 59.3255 63.8536C59.4047 64.2566 59.4462 64.6731 59.4462 65.0993V66.2496C59.4462 69.7976 56.57 72.6739 53.0219 72.6739C51.1034 72.6739 49.3812 71.8328 48.2041 70.4993C47.0269 71.8328 45.3048 72.6739 43.3862 72.6739C39.8382 72.6739 36.9619 69.7976 36.9619 66.2496V65.0993C36.9619 64.6712 37.0038 64.2528 37.0837 63.8481Z" fill="#679A66"/>
<rect x="27.1865" y="63.9253" width="4.56461" height="22.6369" fill="#93642D"/>
<rect x="27.1865" y="63.729" width="4.43987" height="17.2226" fill="#714D22"/>
<path fill-rule="evenodd" clip-rule="evenodd" d="M23.1287 61.8984C23.1287 58.3504 26.005 55.4741 29.553 55.4741C33.101 55.4741 35.9773 58.3504 35.9773 61.8984V63.0486C35.9773 63.1868 35.9729 63.3239 35.9643 63.4598C38.6243 64.2457 40.5653 66.707 40.5653 69.6217V70.7719C40.5653 74.32 37.689 77.1962 34.141 77.1962C32.2225 77.1962 30.5003 76.3552 29.3232 75.0217C28.146 76.3552 26.4239 77.1962 24.5053 77.1962C20.9573 77.1962 18.0811 74.32 18.0811 70.7719V69.6217C18.0811 66.5438 20.2455 63.9715 23.1354 63.3438C23.131 63.246 23.1287 63.1476 23.1287 63.0486V61.8984Z" fill="#83C082"/>
<path fill-rule="evenodd" clip-rule="evenodd" d="M23.8313 50.4222C23.8313 47.3472 26.3241 44.8545 29.399 44.8545C32.474 44.8545 34.9667 47.3472 34.9667 50.4222V51.4191C34.9667 51.5389 34.963 51.6578 34.9555 51.7757C37.2608 52.4567 38.9431 54.5899 38.9431 57.116V58.1129C38.9431 61.1878 36.4504 63.6806 33.3754 63.6806C31.7125 63.6806 30.2198 62.9515 29.1996 61.7956C28.1794 62.9515 26.6867 63.6806 25.0238 63.6806C21.9488 63.6806 19.4561 61.1878 19.4561 58.1129V57.116C19.4561 54.4483 21.3323 52.2188 23.8371 51.675C23.8333 51.5902 23.8313 51.5049 23.8313 51.4191V50.4222Z" fill="#66A865"/>
<path fill-rule="evenodd" clip-rule="evenodd" d="M24.8818 41.2168C24.8818 38.6938 26.9271 36.6484 29.4501 36.6484C31.9732 36.6484 34.0185 38.6938 34.0185 41.2168V42.0348C34.0185 42.133 34.0154 42.2304 34.0093 42.3271C35.9013 42.8856 37.2819 44.6361 37.2819 46.7091V47.527C37.2819 50.0501 35.2366 52.0954 32.7136 52.0954C31.3492 52.0954 30.1245 51.4973 29.2875 50.549C28.4504 51.4973 27.2257 52.0954 25.8613 52.0954C23.3383 52.0954 21.293 50.0501 21.293 47.527V46.7091C21.293 44.5206 22.8318 42.6915 24.8865 42.245C24.8834 42.1753 24.8818 42.1052 24.8818 42.0348V41.2168Z" fill="#83C082"/>
<path fill-rule="evenodd" clip-rule="evenodd" d="M18.15 68.3433C18.7302 71.2948 21.3319 73.5213 24.4535 73.5213C26.3721 73.5213 28.0943 72.6802 29.2715 71.3467C30.4486 72.6802 32.1708 73.5213 34.0894 73.5213C37.2094 73.5213 39.81 71.2972 40.392 68.3479C40.4713 68.751 40.5128 69.1677 40.5128 69.5941V70.7444C40.5128 74.2924 37.6366 77.1686 34.0885 77.1686C32.1699 77.1686 30.4477 76.3276 29.2706 74.994C28.0934 76.3276 26.3712 77.1686 24.4526 77.1686C20.9046 77.1686 18.0283 74.2924 18.0283 70.7444V69.5941C18.0283 69.1661 18.0702 68.7479 18.15 68.3433Z" fill="#679A66"/>
<rect x="141.671" y="50.8965" width="4.56461" height="22.6369" fill="#93642D"/>
<rect x="141.671" y="50.7002" width="4.43987" height="17.2226" fill="#714D22"/>
<path fill-rule="evenodd" clip-rule="evenodd" d="M137.612 48.8696C137.612 45.3216 140.489 42.4453 144.037 42.4453C147.585 42.4453 150.461 45.3216 150.461 48.8696V50.0198C150.461 50.158 150.457 50.2951 150.448 50.4311C153.108 51.2169 155.049 53.6782 155.049 56.5929V57.7431C155.049 61.2912 152.173 64.1674 148.625 64.1674C146.706 64.1674 144.984 63.3263 143.807 61.9928C142.63 63.3263 140.907 64.1674 138.989 64.1674C135.441 64.1674 132.564 61.2912 132.564 57.7431V56.5929C132.564 53.5149 134.729 50.9425 137.619 50.3149C137.615 50.2171 137.612 50.1187 137.612 50.0198V48.8696Z" fill="#83C082"/>
<path fill-rule="evenodd" clip-rule="evenodd" d="M138.316 37.3939C138.316 34.3189 140.809 31.8262 143.884 31.8262C146.959 31.8262 149.451 34.3189 149.451 37.3939V38.3908C149.451 38.5106 149.448 38.6296 149.44 38.7476C151.745 39.4288 153.427 41.5618 153.427 44.0877V45.0846C153.427 48.1595 150.934 50.6523 147.86 50.6523C146.197 50.6523 144.704 49.9233 143.684 48.7675C142.664 49.9233 141.171 50.6523 139.508 50.6523C136.433 50.6523 133.94 48.1595 133.94 45.0846V44.0877C133.94 41.4199 135.817 39.1903 138.322 38.6467C138.318 38.5618 138.316 38.4765 138.316 38.3908V37.3939Z" fill="#66A865"/>
<path fill-rule="evenodd" clip-rule="evenodd" d="M139.367 28.188C139.367 25.665 141.412 23.6196 143.935 23.6196C146.458 23.6196 148.503 25.665 148.503 28.188V29.006C148.503 29.1042 148.5 29.2017 148.494 29.2983C150.386 29.8569 151.767 31.6074 151.767 33.6803V34.4983C151.767 37.0213 149.721 39.0666 147.198 39.0666C145.834 39.0666 144.609 38.4685 143.772 37.52C142.935 38.4684 141.71 39.0666 140.346 39.0666C137.823 39.0666 135.777 37.0213 135.777 34.4983V33.6803C135.777 31.4917 137.316 29.6625 139.371 29.2161C139.368 29.1464 139.367 29.0764 139.367 29.006V28.188Z" fill="#83C082"/>
<path fill-rule="evenodd" clip-rule="evenodd" d="M132.634 55.3149C133.215 58.2666 135.816 60.4931 138.938 60.4931C140.856 60.4931 142.579 59.6521 143.756 58.3185C144.933 59.6521 146.655 60.4931 148.574 60.4931C151.694 60.4931 154.295 58.2688 154.876 55.3193C154.956 55.7224 154.997 56.1391 154.997 56.5655V57.7157C154.997 61.2638 152.121 64.14 148.573 64.14C146.654 64.14 144.932 63.2989 143.755 61.9654C142.578 63.2989 140.856 64.14 138.937 64.14C135.389 64.14 132.513 61.2638 132.513 57.7157V56.5655C132.513 56.1376 132.555 55.7194 132.634 55.3149Z" fill="#679A66"/>
<rect x="253.611" y="79.3452" width="4.56461" height="22.6369" fill="#93642D"/>
<rect x="253.611" y="79.1489" width="4.43987" height="17.2226" fill="#714D22"/>
<path fill-rule="evenodd" clip-rule="evenodd" d="M249.554 77.3183C249.554 73.7703 252.431 70.894 255.979 70.894C259.527 70.894 262.403 73.7703 262.403 77.3183V78.4686C262.403 78.6067 262.398 78.7438 262.39 78.8798C265.05 79.6657 266.991 82.127 266.991 85.0416V86.1919C266.991 89.7399 264.115 92.6161 260.566 92.6161C258.648 92.6161 256.925 91.775 255.748 90.4413C254.571 91.775 252.849 92.6161 250.93 92.6161C247.382 92.6161 244.506 89.7399 244.506 86.1919V85.0416C244.506 81.9635 246.671 79.391 249.561 78.7636C249.557 78.6658 249.554 78.5674 249.554 78.4686V77.3183Z" fill="#83C082"/>
<path fill-rule="evenodd" clip-rule="evenodd" d="M250.257 65.8426C250.257 62.7676 252.75 60.2749 255.824 60.2749C258.899 60.2749 261.392 62.7676 261.392 65.8426V66.8395C261.392 66.9593 261.388 67.0783 261.381 67.1963C263.686 67.8775 265.368 70.0105 265.368 72.5364V73.5333C265.368 76.6082 262.875 79.101 259.8 79.101C258.137 79.101 256.645 78.3719 255.624 77.216C254.604 78.3719 253.112 79.101 251.449 79.101C248.374 79.101 245.881 76.6082 245.881 73.5333V72.5364C245.881 69.8685 247.757 67.6388 250.263 67.0953C250.259 67.0105 250.257 66.9252 250.257 66.8395V65.8426Z" fill="#66A865"/>
<path fill-rule="evenodd" clip-rule="evenodd" d="M251.308 56.6367C251.308 54.1137 253.353 52.0684 255.876 52.0684C258.399 52.0684 260.445 54.1137 260.445 56.6367V57.4547C260.445 57.5528 260.441 57.6503 260.435 57.7469C262.327 58.3054 263.708 60.0559 263.708 62.129V62.9469C263.708 65.47 261.663 67.5153 259.14 67.5153C257.775 67.5153 256.551 66.9171 255.713 65.9686C254.876 66.9171 253.652 67.5153 252.287 67.5153C249.764 67.5153 247.719 65.47 247.719 62.9469V62.129C247.719 59.9404 249.258 58.1113 251.313 57.6648C251.309 57.5951 251.308 57.5251 251.308 57.4547V56.6367Z" fill="#83C082"/>
<path fill-rule="evenodd" clip-rule="evenodd" d="M244.575 83.7573C245.153 86.7117 247.756 88.9411 250.88 88.9411C252.798 88.9411 254.52 88.1001 255.697 86.7667C256.874 88.1001 258.597 88.9411 260.515 88.9411C263.633 88.9411 266.232 86.7197 266.817 83.7732C266.895 84.1746 266.936 84.5894 266.936 85.0139V86.1641C266.936 89.7121 264.06 92.5884 260.512 92.5884C258.593 92.5884 256.871 91.7474 255.694 90.4139C254.517 91.7474 252.795 92.5884 250.876 92.5884C247.328 92.5884 244.452 89.7122 244.452 86.1641V85.0139C244.452 84.5839 244.494 84.1637 244.575 83.7573Z" fill="#679A66"/>
<rect x="178.629" y="52.793" width="4.56461" height="22.6369" fill="#93642D"/>
<rect x="178.629" y="52.5967" width="4.43987" height="17.2226" fill="#714D22"/>
<path fill-rule="evenodd" clip-rule="evenodd" d="M174.572 50.7661C174.572 47.218 177.448 44.3418 180.996 44.3418C184.544 44.3418 187.421 47.218 187.421 50.7661V51.9163C187.421 52.0545 187.416 52.1916 187.408 52.3275C190.068 53.1134 192.009 55.5747 192.009 58.4894V59.6396C192.009 63.1877 189.132 66.0639 185.584 66.0639C183.666 66.0639 181.944 65.2229 180.767 63.8894C179.589 65.2229 177.867 66.0639 175.949 66.0639C172.401 66.0639 169.524 63.1877 169.524 59.6397V58.4894C169.524 55.4115 171.689 52.8392 174.579 52.2115C174.574 52.1137 174.572 52.0153 174.572 51.9163V50.7661Z" fill="#83C082"/>
<path fill-rule="evenodd" clip-rule="evenodd" d="M175.275 39.2899C175.275 36.2149 177.768 33.7222 180.843 33.7222C183.918 33.7222 186.41 36.2149 186.41 39.2899V40.2868C186.41 40.4066 186.407 40.5256 186.399 40.6436C188.704 41.3248 190.386 43.4578 190.386 45.9837V46.9806C190.386 50.0555 187.893 52.5483 184.818 52.5483C183.156 52.5483 181.663 51.8193 180.643 50.6635C179.623 51.8193 178.13 52.5483 176.467 52.5483C173.392 52.5483 170.899 50.0555 170.899 46.9806V45.9837C170.899 43.3158 172.776 41.0863 175.281 40.5426C175.277 40.4578 175.275 40.3725 175.275 40.2868V39.2899Z" fill="#66A865"/>
<path fill-rule="evenodd" clip-rule="evenodd" d="M176.325 30.0845C176.325 27.5614 178.37 25.5161 180.893 25.5161C183.416 25.5161 185.462 27.5614 185.462 30.0845V30.9024C185.462 31.0006 185.459 31.098 185.453 31.1946C187.345 31.7531 188.725 33.5036 188.725 35.5766V36.3946C188.725 38.9176 186.68 40.963 184.157 40.963C182.793 40.963 181.568 40.3648 180.731 39.4165C179.894 40.3648 178.669 40.963 177.305 40.963C174.782 40.963 172.736 38.9176 172.736 36.3946V35.5766C172.736 33.3882 174.275 31.5591 176.33 31.1125C176.327 31.0429 176.325 30.9728 176.325 30.9024V30.0845Z" fill="#83C082"/>
<path fill-rule="evenodd" clip-rule="evenodd" d="M169.593 57.2109C170.173 60.1626 172.775 62.3892 175.897 62.3892C177.815 62.3892 179.538 61.5482 180.715 60.2147C181.892 61.5482 183.614 62.3892 185.533 62.3892C188.653 62.3892 191.253 60.1649 191.835 57.2155C191.914 57.6186 191.956 58.0353 191.956 58.4617V59.6119C191.956 63.1599 189.08 66.0362 185.532 66.0362C183.613 66.0362 181.891 65.1951 180.714 63.8616C179.537 65.1951 177.815 66.0362 175.896 66.0362C172.348 66.0362 169.472 63.1599 169.472 59.6119V58.4617C169.472 58.0337 169.514 57.6155 169.593 57.2109Z" fill="#679A66"/>
<rect x="196.659" y="57.5342" width="4.56461" height="22.6369" fill="#93642D"/>
<rect x="196.659" y="57.3379" width="4.43987" height="17.2226" fill="#714D22"/>
<path fill-rule="evenodd" clip-rule="evenodd" d="M192.602 55.5073C192.602 51.9593 195.479 49.083 199.027 49.083C202.575 49.083 205.451 51.9593 205.451 55.5073V56.6575C205.451 56.7957 205.447 56.9328 205.438 57.0688C208.098 57.8547 210.039 60.316 210.039 63.2306V64.3808C210.039 67.9289 207.163 70.8051 203.615 70.8051C201.696 70.8051 199.974 69.9641 198.797 68.6307C197.62 69.9641 195.897 70.8051 193.979 70.8051C190.431 70.8051 187.555 67.9289 187.555 64.3808V63.2306C187.555 60.1527 189.719 57.5804 192.609 56.9527C192.605 56.8549 192.602 56.7565 192.602 56.6575V55.5073Z" fill="#83C082"/>
<path fill-rule="evenodd" clip-rule="evenodd" d="M193.304 44.0316C193.304 40.9566 195.797 38.4639 198.872 38.4639C201.947 38.4639 204.439 40.9566 204.439 44.0316V45.0285C204.439 45.1482 204.435 45.2671 204.428 45.385C206.733 46.066 208.416 48.1992 208.416 50.7254V51.7223C208.416 54.7972 205.923 57.29 202.848 57.29C201.185 57.29 199.693 56.5609 198.672 55.4049C197.652 56.5609 196.159 57.29 194.496 57.29C191.421 57.29 188.929 54.7972 188.929 51.7223V50.7254C188.929 48.0577 190.805 45.8282 193.31 45.2844C193.306 45.1996 193.304 45.1142 193.304 45.0285V44.0316Z" fill="#66A865"/>
<path fill-rule="evenodd" clip-rule="evenodd" d="M194.355 34.8257C194.355 32.3027 196.401 30.2573 198.924 30.2573C201.447 30.2573 203.492 32.3027 203.492 34.8257V35.6437C203.492 35.7419 203.489 35.8394 203.483 35.9361C205.375 36.4948 206.755 38.2452 206.755 40.3179V41.1359C206.755 43.6589 204.71 45.7043 202.187 45.7043C200.822 45.7043 199.597 45.1061 198.76 44.1577C197.923 45.1061 196.698 45.7043 195.334 45.7043C192.811 45.7043 190.766 43.6589 190.766 41.1359V40.3179C190.766 38.1291 192.305 36.2999 194.36 35.8536C194.357 35.784 194.355 35.714 194.355 35.6437V34.8257Z" fill="#83C082"/>
<path fill-rule="evenodd" clip-rule="evenodd" d="M187.623 61.9517C188.203 64.9037 190.804 67.1306 193.926 67.1306C195.845 67.1306 197.567 66.2896 198.744 64.9562C199.921 66.2896 201.643 67.1306 203.562 67.1306C206.682 67.1306 209.282 64.9065 209.864 61.9574C209.944 62.3603 209.985 62.7768 209.985 63.2029V64.3532C209.985 67.9012 207.109 70.7774 203.561 70.7774C201.642 70.7774 199.92 69.9364 198.743 68.603C197.566 69.9364 195.844 70.7774 193.925 70.7774C190.377 70.7774 187.501 67.9012 187.501 64.3532V63.2029C187.501 62.7748 187.543 62.3564 187.623 61.9517Z" fill="#679A66"/>
<rect x="166.911" y="67.9653" width="4.56461" height="22.6369" fill="#93642D"/>
<rect x="166.911" y="67.769" width="4.43987" height="17.2226" fill="#714D22"/>
<path fill-rule="evenodd" clip-rule="evenodd" d="M162.853 65.9384C162.853 62.3904 165.73 59.5142 169.278 59.5142C172.826 59.5142 175.702 62.3904 175.702 65.9384V67.0887C175.702 67.2268 175.697 67.3639 175.689 67.4998C178.349 68.2857 180.29 70.747 180.29 73.6617V74.812C180.29 78.36 177.414 81.2363 173.866 81.2363C171.947 81.2363 170.225 80.3952 169.048 79.0617C167.871 80.3952 166.149 81.2362 164.23 81.2362C160.682 81.2362 157.806 78.36 157.806 74.812V73.6617C157.806 70.5839 159.97 68.0116 162.86 67.3839C162.856 67.286 162.853 67.1876 162.853 67.0887V65.9384Z" fill="#83C082"/>
<path fill-rule="evenodd" clip-rule="evenodd" d="M163.557 54.4627C163.557 51.3878 166.05 48.895 169.125 48.895C172.199 48.895 174.692 51.3878 174.692 54.4627V55.4596C174.692 55.5795 174.688 55.6984 174.681 55.8164C176.986 56.4977 178.668 58.6307 178.668 61.1565V62.1534C178.668 65.2284 176.175 67.7211 173.1 67.7211C171.437 67.7211 169.945 66.992 168.924 65.836C167.904 66.992 166.411 67.7211 164.748 67.7211C161.673 67.7211 159.181 65.2284 159.181 62.1534V61.1565C159.181 58.4885 161.057 56.2588 163.563 55.7154C163.559 55.6306 163.557 55.5453 163.557 55.4596V54.4627Z" fill="#66A865"/>
<path fill-rule="evenodd" clip-rule="evenodd" d="M164.606 45.2568C164.606 42.7338 166.652 40.6885 169.175 40.6885C171.698 40.6885 173.743 42.7338 173.743 45.2569V46.0748C173.743 46.173 173.74 46.2704 173.734 46.367C175.626 46.9255 177.007 48.676 177.007 50.7492V51.5671C177.007 54.0902 174.962 56.1355 172.439 56.1355C171.074 56.1355 169.849 55.5373 169.012 54.5888C168.175 55.5373 166.95 56.1355 165.586 56.1355C163.063 56.1355 161.018 54.0901 161.018 51.5671V50.7491C161.018 48.5607 162.556 46.7316 164.611 46.285C164.608 46.2153 164.606 46.1453 164.606 46.0748V45.2568Z" fill="#83C082"/>
<path fill-rule="evenodd" clip-rule="evenodd" d="M157.874 72.3804C158.453 75.3335 161.056 77.5616 164.178 77.5616C166.097 77.5616 167.819 76.7206 168.996 75.3871C170.173 76.7206 171.895 77.5616 173.814 77.5616C176.933 77.5616 179.533 75.3387 180.116 72.3906C180.195 72.7929 180.236 73.2086 180.236 73.6339V74.7842C180.236 78.3322 177.36 81.2085 173.812 81.2085C171.893 81.2085 170.171 80.3674 168.994 79.0339C167.817 80.3674 166.095 81.2085 164.176 81.2085C160.628 81.2085 157.752 78.3322 157.752 74.7842V73.6339C157.752 73.205 157.794 72.7858 157.874 72.3804Z" fill="#679A66"/>
<rect x="142.039" y="68.8662" width="4.56461" height="22.6369" fill="#93642D"/>
<rect x="142.039" y="68.6699" width="4.43987" height="17.2226" fill="#714D22"/>
<path fill-rule="evenodd" clip-rule="evenodd" d="M137.98 66.8393C137.98 63.2913 140.857 60.415 144.405 60.415C147.953 60.415 150.829 63.2913 150.829 66.8393V67.9896C150.829 68.1276 150.825 68.2647 150.816 68.4006C153.476 69.1862 155.418 71.6477 155.418 74.5626V75.7129C155.418 79.2609 152.541 82.1371 148.993 82.1371C147.075 82.1371 145.352 81.2959 144.175 79.9622C142.998 81.2959 141.276 82.1371 139.357 82.1371C135.809 82.1371 132.933 79.2609 132.933 75.7129V74.5626C132.933 71.4847 135.097 68.9124 137.987 68.2847C137.983 68.1869 137.98 68.0885 137.98 67.9896V66.8393Z" fill="#83C082"/>
<path fill-rule="evenodd" clip-rule="evenodd" d="M138.684 55.3636C138.684 52.2886 141.177 49.7959 144.252 49.7959C147.327 49.7959 149.819 52.2886 149.819 55.3636V56.3605C149.819 56.4803 149.816 56.5992 149.808 56.7171C152.113 57.3981 153.796 59.5313 153.796 62.0574V63.0543C153.796 66.1293 151.303 68.622 148.228 68.622C146.565 68.622 145.072 67.8929 144.052 66.737C143.032 67.8929 141.539 68.622 139.876 68.622C136.801 68.622 134.309 66.1293 134.309 63.0543V62.0574C134.309 59.3897 136.185 57.1602 138.69 56.6164C138.686 56.5316 138.684 56.4463 138.684 56.3605V55.3636Z" fill="#66A865"/>
<path fill-rule="evenodd" clip-rule="evenodd" d="M139.733 46.1577C139.733 43.6347 141.779 41.5894 144.302 41.5894C146.825 41.5894 148.87 43.6347 148.87 46.1577V46.9757C148.87 47.0739 148.867 47.1713 148.861 47.2679C150.753 47.8264 152.134 49.5769 152.134 51.65V52.468C152.134 54.991 150.089 57.0363 147.566 57.0363C146.201 57.0363 144.976 56.4381 144.139 55.4897C143.302 56.4381 142.077 57.0363 140.713 57.0363C138.19 57.0363 136.145 54.991 136.145 52.468V51.65C136.145 49.4615 137.683 47.6324 139.738 47.1858C139.735 47.1162 139.733 47.0461 139.733 46.9757V46.1577Z" fill="#83C082"/>
<path fill-rule="evenodd" clip-rule="evenodd" d="M133.003 73.2822C133.582 76.2349 136.184 78.4625 139.307 78.4625C141.225 78.4625 142.948 77.6215 144.125 76.288C145.302 77.6215 147.024 78.4625 148.943 78.4625C152.062 78.4625 154.662 76.2393 155.245 73.2909C155.324 73.6934 155.365 74.1093 155.365 74.535V75.6852C155.365 79.2333 152.489 82.1095 148.941 82.1095C147.022 82.1095 145.3 81.2685 144.123 79.9349C142.946 81.2685 141.224 82.1095 139.305 82.1095C135.757 82.1095 132.881 79.2333 132.881 75.6853V74.535C132.881 74.1063 132.923 73.6874 133.003 73.2822Z" fill="#679A66"/>
<rect x="259.762" y="48.9995" width="4.56461" height="22.6369" fill="#93642D"/>
<rect x="259.762" y="48.8032" width="4.43987" height="17.2226" fill="#714D22"/>
<path fill-rule="evenodd" clip-rule="evenodd" d="M255.703 46.9726C255.703 43.4246 258.579 40.5483 262.127 40.5483C265.675 40.5483 268.551 43.4246 268.551 46.9726V48.1229C268.551 48.261 268.547 48.3981 268.538 48.534C271.198 49.3199 273.139 51.7812 273.139 54.6959V55.8462C273.139 59.3942 270.263 62.2704 266.715 62.2704C264.797 62.2704 263.074 61.4294 261.897 60.096C260.72 61.4294 258.998 62.2704 257.08 62.2704C253.532 62.2704 250.655 59.3942 250.655 55.8462V54.6959C250.655 51.6181 252.82 49.0458 255.709 48.4181C255.705 48.3202 255.703 48.2218 255.703 48.1229V46.9726Z" fill="#83C082"/>
<path fill-rule="evenodd" clip-rule="evenodd" d="M256.407 35.4969C256.407 32.4219 258.899 29.9292 261.974 29.9292C265.049 29.9292 267.542 32.4219 267.542 35.4969V36.4938C267.542 36.6136 267.538 36.7325 267.531 36.8504C269.836 37.5313 271.519 39.6646 271.519 42.1907V43.1876C271.519 46.2626 269.026 48.7553 265.951 48.7553C264.288 48.7553 262.795 48.0262 261.775 46.8702C260.755 48.0262 259.262 48.7553 257.599 48.7553C254.524 48.7553 252.031 46.2626 252.031 43.1876V42.1907C252.031 39.523 253.907 37.2935 256.412 36.7498C256.408 36.6649 256.407 36.5796 256.407 36.4938V35.4969Z" fill="#66A865"/>
<path fill-rule="evenodd" clip-rule="evenodd" d="M257.457 26.291C257.457 23.768 259.502 21.7227 262.025 21.7227C264.549 21.7227 266.594 23.768 266.594 26.291V27.109C266.594 27.2072 266.591 27.3046 266.585 27.4012C268.477 27.9597 269.857 29.7103 269.857 31.7833V32.6013C269.857 35.1243 267.812 37.1696 265.289 37.1696C263.925 37.1696 262.7 36.5714 261.863 35.623C261.026 36.5714 259.801 37.1696 258.437 37.1696C255.913 37.1696 253.868 35.1243 253.868 32.6013V31.7833C253.868 29.5948 255.407 27.7657 257.462 27.3191C257.459 27.2495 257.457 27.1794 257.457 27.109V26.291Z" fill="#83C082"/>
<path fill-rule="evenodd" clip-rule="evenodd" d="M250.726 53.4194C251.307 56.3703 253.908 58.5961 257.029 58.5961C258.948 58.5961 260.67 57.7551 261.847 56.4216C263.024 57.7551 264.746 58.5961 266.665 58.5961C269.785 58.5961 272.386 56.3711 272.968 53.4209C273.047 53.8245 273.089 54.2416 273.089 54.6684V55.8187C273.089 59.3667 270.212 62.2429 266.664 62.2429C264.746 62.2429 263.024 61.4019 261.847 60.0685C260.669 61.4019 258.947 62.2429 257.029 62.2429C253.481 62.2429 250.604 59.3667 250.604 55.8187V54.6684C250.604 54.2411 250.646 53.8234 250.726 53.4194Z" fill="#679A66"/>
<rect x="232.719" y="61.3276" width="4.56461" height="22.6369" fill="#93642D"/>
<rect x="232.719" y="61.1313" width="4.43987" height="17.2226" fill="#714D22"/>
<path fill-rule="evenodd" clip-rule="evenodd" d="M228.66 59.3007C228.66 55.7527 231.536 52.8765 235.085 52.8765C238.633 52.8765 241.509 55.7527 241.509 59.3007V60.451C241.509 60.5891 241.504 60.7263 241.496 60.8622C244.156 61.6481 246.097 64.1094 246.097 67.0241V68.1743C246.097 71.7223 243.22 74.5986 239.672 74.5986C237.754 74.5986 236.032 73.7575 234.855 72.424C233.677 73.7575 231.955 74.5986 230.037 74.5986C226.489 74.5986 223.612 71.7223 223.612 68.1743V67.0241C223.612 63.9461 225.777 61.3737 228.667 60.7461C228.662 60.6483 228.66 60.5499 228.66 60.451V59.3007Z" fill="#83C082"/>
<path fill-rule="evenodd" clip-rule="evenodd" d="M229.364 47.825C229.364 44.7501 231.857 42.2573 234.932 42.2573C238.007 42.2573 240.499 44.7501 240.499 47.825V48.8219C240.499 48.9418 240.496 49.0608 240.488 49.1787C242.793 49.86 244.475 51.993 244.475 54.5188V55.5157C244.475 58.5907 241.982 61.0834 238.907 61.0834C237.244 61.0834 235.752 60.3544 234.732 59.1986C233.711 60.3544 232.219 61.0834 230.556 61.0834C227.481 61.0834 224.988 58.5907 224.988 55.5157V54.5188C224.988 51.8509 226.865 49.6213 229.37 49.0777C229.366 48.993 229.364 48.9077 229.364 48.8219V47.825Z" fill="#66A865"/>
<path fill-rule="evenodd" clip-rule="evenodd" d="M230.414 38.6192C230.414 36.0961 232.46 34.0508 234.983 34.0508C237.506 34.0508 239.551 36.0961 239.551 38.6192V39.4371C239.551 39.5353 239.548 39.6328 239.542 39.7294C241.434 40.2879 242.815 42.0385 242.815 44.1115V44.9294C242.815 47.4525 240.769 49.4978 238.246 49.4978C236.882 49.4978 235.657 48.8996 234.82 47.9512C233.983 48.8996 232.758 49.4978 231.394 49.4978C228.871 49.4978 226.825 47.4525 226.825 44.9294V44.1115C226.825 41.9229 228.364 40.0938 230.419 39.6473C230.416 39.5776 230.414 39.5076 230.414 39.4371V38.6192Z" fill="#83C082"/>
<path fill-rule="evenodd" clip-rule="evenodd" d="M223.683 65.748C224.264 68.6987 226.865 70.9242 229.986 70.9242C231.904 70.9242 233.627 70.0832 234.804 68.7497C235.981 70.0832 237.703 70.9242 239.622 70.9242C242.742 70.9242 245.344 68.6989 245.925 65.7485C246.004 66.1523 246.046 66.5696 246.046 66.9967V68.1469C246.046 71.6949 243.17 74.5712 239.622 74.5712C237.703 74.5712 235.981 73.7302 234.804 72.3966C233.627 73.7302 231.904 74.5712 229.986 74.5712C226.438 74.5712 223.562 71.6949 223.562 68.1469V66.9967C223.562 66.5694 223.603 66.152 223.683 65.748Z" fill="#679A66"/>
<rect x="218.295" y="69.8623" width="4.56461" height="22.6369" fill="#93642D"/>
<rect x="218.295" y="69.666" width="4.43987" height="17.2226" fill="#714D22"/>
<path fill-rule="evenodd" clip-rule="evenodd" d="M214.236 67.8354C214.236 64.2874 217.112 61.4111 220.66 61.4111C224.208 61.4111 227.085 64.2874 227.085 67.8354V68.9857C227.085 69.1238 227.08 69.2609 227.072 69.3969C229.732 70.1827 231.673 72.644 231.673 75.5587V76.7089C231.673 80.257 228.796 83.1332 225.248 83.1332C223.33 83.1332 221.608 82.2922 220.431 80.9587C219.253 82.2922 217.531 83.1332 215.613 83.1332C212.065 83.1332 209.188 80.257 209.188 76.709V75.5587C209.188 72.4808 211.353 69.9085 214.243 69.2808C214.238 69.183 214.236 69.0846 214.236 68.9857V67.8354Z" fill="#83C082"/>
<path fill-rule="evenodd" clip-rule="evenodd" d="M214.94 56.3592C214.94 53.2842 217.432 50.7915 220.507 50.7915C223.582 50.7915 226.075 53.2842 226.075 56.3592V57.3561C226.075 57.4759 226.071 57.5948 226.064 57.7128C228.369 58.3939 230.051 60.527 230.051 63.053V64.0499C230.051 67.1248 227.558 69.6176 224.484 69.6176C222.821 69.6176 221.328 68.8886 220.308 67.7328C219.288 68.8886 217.795 69.6176 216.132 69.6176C213.057 69.6176 210.564 67.1249 210.564 64.0499V63.053C210.564 60.3853 212.441 58.1558 214.945 57.612C214.942 57.5272 214.94 57.4419 214.94 57.3561V56.3592Z" fill="#66A865"/>
<path fill-rule="evenodd" clip-rule="evenodd" d="M215.99 47.1538C215.99 44.6308 218.035 42.5854 220.559 42.5854C223.082 42.5854 225.127 44.6308 225.127 47.1538V47.9718C225.127 48.07 225.124 48.1675 225.118 48.2642C227.009 48.8231 228.389 50.5733 228.389 52.6459V53.4639C228.389 55.9869 226.344 58.0323 223.821 58.0323C222.457 58.0323 221.232 57.4342 220.395 56.4859C219.558 57.4342 218.333 58.0323 216.969 58.0323C214.446 58.0323 212.4 55.9869 212.4 53.4639V52.6459C212.4 50.4571 213.94 48.6278 215.995 48.1816C215.992 48.112 215.99 48.0421 215.99 47.9718V47.1538Z" fill="#83C082"/>
<path fill-rule="evenodd" clip-rule="evenodd" d="M209.259 74.2831C209.84 77.2335 212.441 79.4588 215.562 79.4588C217.481 79.4588 219.203 78.6177 220.38 77.2841C221.557 78.6177 223.279 79.4588 225.198 79.4588C228.319 79.4588 230.92 77.2333 231.501 74.2827C231.58 74.6866 231.622 75.1041 231.622 75.5314V76.6816C231.622 80.2296 228.746 83.1059 225.198 83.1059C223.279 83.1059 221.557 82.2648 220.38 80.9312C219.203 82.2648 217.481 83.1059 215.562 83.1059C212.014 83.1059 209.138 80.2296 209.138 76.6816V75.5314C209.138 75.1043 209.179 74.6869 209.259 74.2831Z" fill="#679A66"/>
<rect x="278.691" y="54.6895" width="4.56461" height="22.6369" fill="#93642D"/>
<rect x="278.691" y="54.4932" width="4.43987" height="17.2226" fill="#714D22"/>
<path fill-rule="evenodd" clip-rule="evenodd" d="M274.633 52.6626C274.633 49.1145 277.509 46.2383 281.057 46.2383C284.605 46.2383 287.481 49.1145 287.481 52.6626V53.8128C287.481 53.9509 287.477 54.0879 287.468 54.2238C290.129 55.0094 292.07 57.4709 292.07 60.3858V61.5361C292.07 65.0841 289.194 67.9604 285.646 67.9604C283.727 67.9604 282.005 67.1191 280.828 65.7854C279.65 67.1191 277.928 67.9604 276.009 67.9604C272.461 67.9604 269.585 65.0841 269.585 61.5361V60.3859C269.585 57.3079 271.75 54.7355 274.64 54.1079C274.635 54.0101 274.633 53.9117 274.633 53.8128V52.6626Z" fill="#83C082"/>
<path fill-rule="evenodd" clip-rule="evenodd" d="M275.336 41.1868C275.336 38.1119 277.829 35.6191 280.904 35.6191C283.979 35.6191 286.471 38.1119 286.471 41.1868V42.1837C286.471 42.3034 286.468 42.4222 286.46 42.54C288.766 43.2207 290.449 45.3542 290.449 47.8807V48.8775C290.449 51.9525 287.956 54.4452 284.881 54.4452C283.218 54.4452 281.725 53.716 280.705 52.5598C279.685 53.716 278.192 54.4452 276.529 54.4452C273.454 54.4452 270.961 51.9525 270.961 48.8775V47.8806C270.961 45.213 272.837 42.9836 275.342 42.4397C275.338 42.3549 275.336 42.2695 275.336 42.1837V41.1868Z" fill="#66A865"/>
<path fill-rule="evenodd" clip-rule="evenodd" d="M276.386 31.981C276.386 29.4579 278.432 27.4126 280.955 27.4126C283.478 27.4126 285.523 29.4579 285.523 31.981V32.7989C285.523 32.8971 285.52 32.9945 285.514 33.0911C287.406 33.6495 288.787 35.4001 288.787 37.4733V38.2912C288.787 40.8142 286.742 42.8596 284.219 42.8596C282.854 42.8596 281.629 42.2612 280.792 41.3125C279.955 42.2612 278.73 42.8596 277.365 42.8596C274.842 42.8596 272.797 40.8142 272.797 38.2912V37.4732C272.797 35.2845 274.336 33.4552 276.391 33.0089C276.388 32.9393 276.386 32.8693 276.386 32.7989V31.981Z" fill="#83C082"/>
<path fill-rule="evenodd" clip-rule="evenodd" d="M269.654 59.105C270.234 62.0578 272.836 64.2855 275.958 64.2855C277.877 64.2855 279.599 63.4444 280.776 62.1109C281.953 63.4444 283.675 64.2855 285.594 64.2855C288.713 64.2855 291.314 62.0622 291.896 59.1139C291.975 59.5163 292.017 59.9323 292.017 60.3579V61.5081C292.017 65.0562 289.14 67.9324 285.592 67.9324C283.674 67.9324 281.952 67.0913 280.774 65.7578C279.597 67.0913 277.875 67.9324 275.956 67.9324C272.408 67.9324 269.532 65.0562 269.532 61.5081V60.3579C269.532 59.9291 269.574 59.5102 269.654 59.105Z" fill="#679A66"/>
<rect opacity="0.8" width="311" height="104" fill="#F4FFFB"/>
<rect x="199.017" y="82.3633" width="4.56461" height="22.6369" fill="#93642D"/>
<rect x="199.017" y="82.167" width="4.43987" height="17.2226" fill="#714D22"/>
<path fill-rule="evenodd" clip-rule="evenodd" d="M194.957 80.3364C194.957 76.7884 197.833 73.9121 201.382 73.9121C204.93 73.9121 207.806 76.7884 207.806 80.3364V81.4866C207.806 81.6247 207.801 81.7617 207.793 81.8976C210.453 82.6832 212.395 85.1447 212.395 88.0597V89.2099C212.395 92.758 209.518 95.6342 205.97 95.6342C204.052 95.6342 202.33 94.7931 201.152 93.4596C199.975 94.7931 198.253 95.6342 196.334 95.6342C192.786 95.6342 189.91 92.758 189.91 89.2099V88.0597C189.91 84.982 192.074 82.4098 194.964 81.7819C194.959 81.684 194.957 81.5856 194.957 81.4866V80.3364Z" fill="#83C082"/>
<path fill-rule="evenodd" clip-rule="evenodd" d="M195.662 68.8607C195.662 65.7857 198.155 63.293 201.23 63.293C204.305 63.293 206.797 65.7857 206.797 68.8607V69.8576C206.797 69.9773 206.794 70.0962 206.786 70.2141C209.092 70.8951 210.774 73.0283 210.774 75.5545V76.5513C210.774 79.6263 208.281 82.119 205.206 82.119C203.543 82.119 202.051 81.39 201.031 80.2342C200.01 81.39 198.518 82.1191 196.855 82.1191C193.78 82.1191 191.287 79.6263 191.287 76.5513V75.5545C191.287 72.8869 193.163 70.6575 195.668 70.1136C195.664 70.0287 195.662 69.9434 195.662 69.8576V68.8607Z" fill="#66A865"/>
<path fill-rule="evenodd" clip-rule="evenodd" d="M196.712 59.6548C196.712 57.1318 198.757 55.0864 201.28 55.0864C203.803 55.0864 205.849 57.1318 205.849 59.6548V60.4728C205.849 60.5709 205.846 60.6684 205.839 60.765C207.731 61.3235 209.112 63.0741 209.112 65.147V65.965C209.112 68.488 207.067 70.5334 204.544 70.5334C203.179 70.5334 201.955 69.9353 201.118 68.9869C200.281 69.9353 199.056 70.5334 197.691 70.5334C195.168 70.5334 193.123 68.4881 193.123 65.965V65.1471C193.123 62.9586 194.662 61.1295 196.717 60.6829C196.713 60.6133 196.712 60.5432 196.712 60.4728V59.6548Z" fill="#83C082"/>
<path fill-rule="evenodd" clip-rule="evenodd" d="M189.982 86.7812C190.562 89.7327 193.164 91.959 196.285 91.959C198.204 91.959 199.926 91.1179 201.103 89.7844C202.281 91.1179 204.003 91.959 205.921 91.959C209.041 91.959 211.642 89.7348 212.224 86.7854C212.303 87.1887 212.345 87.6055 212.345 88.032V89.1823C212.345 92.7303 209.469 95.6065 205.921 95.6065C204.002 95.6065 202.28 94.7654 201.103 93.4319C199.925 94.7654 198.203 95.6065 196.285 95.6065C192.737 95.6065 189.86 92.7303 189.86 89.1823V88.032C189.86 87.604 189.902 87.1858 189.982 86.7812Z" fill="#679A66"/>
<rect x="146.48" y="74.2773" width="4.56461" height="22.6369" fill="#93642D"/>
<rect x="146.48" y="74.0811" width="4.43987" height="17.2226" fill="#714D22"/>
<path fill-rule="evenodd" clip-rule="evenodd" d="M142.421 72.2504C142.421 68.7024 145.297 65.8262 148.845 65.8262C152.393 65.8262 155.27 68.7024 155.27 72.2504V73.4007C155.27 73.5387 155.265 73.6758 155.257 73.8116C157.917 74.5972 159.859 77.0588 159.859 79.9737V81.124C159.859 84.672 156.982 87.5483 153.434 87.5483C151.516 87.5483 149.793 86.7072 148.616 85.3736C147.439 86.7072 145.717 87.5483 143.798 87.5483C140.25 87.5483 137.374 84.672 137.374 81.124V79.9737C137.374 76.8961 139.538 74.3239 142.428 73.696C142.423 73.5981 142.421 73.4997 142.421 73.4007V72.2504Z" fill="#83C082"/>
<path fill-rule="evenodd" clip-rule="evenodd" d="M143.126 60.7742C143.126 57.6993 145.619 55.2065 148.694 55.2065C151.769 55.2065 154.261 57.6993 154.261 60.7742V61.7711C154.261 61.8909 154.258 62.0098 154.25 62.1277C156.555 62.8087 158.238 64.9419 158.238 67.468V68.4649C158.238 71.5399 155.745 74.0326 152.67 74.0326C151.007 74.0326 149.515 73.3036 148.494 72.1478C147.474 73.3036 145.982 74.0326 144.319 74.0326C141.244 74.0326 138.751 71.5399 138.751 68.4649V67.468C138.751 64.8004 140.627 62.571 143.132 62.0271C143.128 61.9423 143.126 61.8569 143.126 61.7711V60.7742Z" fill="#66A865"/>
<path fill-rule="evenodd" clip-rule="evenodd" d="M137.446 78.6953C138.026 81.6467 140.628 83.8731 143.749 83.8731C145.668 83.8731 147.39 83.032 148.567 81.6984C149.744 83.032 151.467 83.8731 153.385 83.8731C156.505 83.8731 159.106 81.6488 159.688 78.6995C159.767 79.1028 159.809 79.5196 159.809 79.9461V81.0963C159.809 84.6443 156.933 87.5206 153.384 87.5206C151.466 87.5206 149.744 86.6795 148.566 85.3459C147.389 86.6795 145.667 87.5206 143.748 87.5206C140.2 87.5206 137.324 84.6443 137.324 81.0963V79.9461C137.324 79.5181 137.366 79.0999 137.446 78.6953Z" fill="#679A66"/>
<rect x="75.1602" y="80.2769" width="4.56461" height="22.6369" fill="#93642D"/>
<rect x="75.1602" y="80.0806" width="4.43987" height="17.2226" fill="#714D22"/>
<path fill-rule="evenodd" clip-rule="evenodd" d="M71.1008 78.25C71.1008 74.7019 73.977 71.8257 77.5251 71.8257C81.0731 71.8257 83.9493 74.7019 83.9493 78.25V79.4002C83.9493 79.5382 83.945 79.6753 83.9364 79.8112C86.5968 80.5968 88.5382 83.0583 88.5382 85.9733V87.1235C88.5382 90.6715 85.6619 93.5478 82.1139 93.5478C80.1953 93.5478 78.4731 92.7067 77.2959 91.3731C76.1188 92.7067 74.3966 93.5478 72.478 93.5478C68.93 93.5478 66.0537 90.6715 66.0537 87.1235V85.9733C66.0537 82.8956 68.2179 80.3234 71.1074 79.6955C71.103 79.5976 71.1008 79.4992 71.1008 79.4002V78.25Z" fill="#83C082"/>
<path fill-rule="evenodd" clip-rule="evenodd" d="M71.8056 66.7742C71.8056 63.6993 74.2983 61.2065 77.3733 61.2065C80.4482 61.2065 82.941 63.6993 82.941 66.7742V67.7711C82.941 67.8909 82.9372 68.0098 82.9298 68.1277C85.2352 68.8087 86.9175 70.9419 86.9175 73.468V74.4649C86.9175 77.5399 84.4248 80.0326 81.3498 80.0326C79.6869 80.0326 78.1943 79.3036 77.1741 78.1478C76.1539 79.3036 74.6613 80.0326 72.9984 80.0326C69.9234 80.0326 67.4307 77.5399 67.4307 74.4649V73.468C67.4307 70.8004 69.3067 68.571 71.8114 68.0271C71.8075 67.9423 71.8056 67.8569 71.8056 67.7711V66.7742Z" fill="#66A865"/>
<path fill-rule="evenodd" clip-rule="evenodd" d="M72.8554 57.5684C72.8554 55.0453 74.9007 53 77.4238 53C79.9468 53 81.9922 55.0453 81.9922 57.5684V58.3863C81.9922 58.4845 81.9891 58.582 81.983 58.6786C83.8749 59.2371 85.2557 60.9876 85.2557 63.0606V63.8786C85.2557 66.4016 83.2104 68.4469 80.6873 68.4469C79.3229 68.4469 78.0982 67.8488 77.2612 66.9005C76.4241 67.8488 75.1994 68.447 73.835 68.447C71.3119 68.447 69.2666 66.4016 69.2666 63.8786V63.0606C69.2666 60.8721 70.8055 59.0431 72.8602 58.5965C72.857 58.5268 72.8554 58.4568 72.8554 58.3863V57.5684Z" fill="#83C082"/>
<path fill-rule="evenodd" clip-rule="evenodd" d="M66.1256 84.6948C66.7059 87.6463 69.3075 89.8726 72.429 89.8726C74.3477 89.8726 76.0698 89.0315 77.247 87.6979C78.4242 89.0315 80.1463 89.8726 82.065 89.8726C85.185 89.8726 87.7856 87.6483 88.3676 84.699C88.4469 85.1023 88.4884 85.5191 88.4884 85.9456V87.0958C88.4884 90.6439 85.6122 93.5201 82.0642 93.5201C80.1455 93.5201 78.4233 92.679 77.2462 91.3454C76.069 92.679 74.3468 93.5201 72.4282 93.5201C68.8802 93.5201 66.0039 90.6439 66.0039 87.0958V85.9456C66.0039 85.5176 66.0458 85.0994 66.1256 84.6948Z" fill="#679A66"/>
<rect x="232.156" y="76.2769" width="4.56461" height="22.6369" fill="#93642D"/>
<rect x="232.156" y="76.0806" width="4.43987" height="17.2226" fill="#714D22"/>
<path fill-rule="evenodd" clip-rule="evenodd" d="M228.097 74.25C228.097 70.7019 230.973 67.8257 234.521 67.8257C238.069 67.8257 240.945 70.7019 240.945 74.25V75.4002C240.945 75.5382 240.941 75.6753 240.932 75.8112C243.593 76.5968 245.534 79.0583 245.534 81.9733V83.1235C245.534 86.6715 242.658 89.5478 239.11 89.5478C237.191 89.5478 235.469 88.7067 234.292 87.3731C233.115 88.7067 231.393 89.5478 229.474 89.5478C225.926 89.5478 223.05 86.6715 223.05 83.1235V81.9733C223.05 78.8956 225.214 76.3234 228.104 75.6955C228.099 75.5976 228.097 75.4992 228.097 75.4002V74.25Z" fill="#83C082"/>
<path fill-rule="evenodd" clip-rule="evenodd" d="M228.802 62.7742C228.802 59.6993 231.294 57.2065 234.369 57.2065C237.444 57.2065 239.937 59.6993 239.937 62.7742V63.7711C239.937 63.8909 239.933 64.0098 239.926 64.1277C242.231 64.8087 243.914 66.9419 243.914 69.468V70.4649C243.914 73.5399 241.421 76.0326 238.346 76.0326C236.683 76.0326 235.19 75.3036 234.17 74.1478C233.15 75.3036 231.657 76.0326 229.994 76.0326C226.92 76.0326 224.427 73.5399 224.427 70.4649V69.468C224.427 66.8004 226.303 64.571 228.807 64.0271C228.804 63.9423 228.802 63.8569 228.802 63.7711V62.7742Z" fill="#66A865"/>
<path fill-rule="evenodd" clip-rule="evenodd" d="M229.852 53.5684C229.852 51.0453 231.897 49 234.42 49C236.943 49 238.988 51.0453 238.988 53.5684V54.3863C238.988 54.4845 238.985 54.582 238.979 54.6786C240.871 55.2371 242.252 56.9876 242.252 59.0606V59.8786C242.252 62.4016 240.206 64.4469 237.683 64.4469C236.319 64.4469 235.094 63.8488 234.257 62.9005C233.42 63.8488 232.195 64.447 230.831 64.447C228.308 64.447 226.263 62.4016 226.263 59.8786V59.0606C226.263 56.8721 227.802 55.0431 229.856 54.5965C229.853 54.5268 229.852 54.4568 229.852 54.3863V53.5684Z" fill="#83C082"/>
<path fill-rule="evenodd" clip-rule="evenodd" d="M223.122 80.6948C223.702 83.6463 226.304 85.8726 229.425 85.8726C231.344 85.8726 233.066 85.0315 234.243 83.6979C235.42 85.0315 237.142 85.8726 239.061 85.8726C242.181 85.8726 244.782 83.6483 245.364 80.699C245.443 81.1023 245.485 81.5191 245.485 81.9456V83.0958C245.485 86.6439 242.608 89.5201 239.06 89.5201C237.142 89.5201 235.419 88.679 234.242 87.3454C233.065 88.679 231.343 89.5201 229.424 89.5201C225.876 89.5201 223 86.6439 223 83.0958V81.9456C223 81.5176 223.042 81.0994 223.122 80.6948Z" fill="#679A66"/>
<rect x="169.928" y="85.0957" width="4.05106" height="20.0901" fill="#93642D"/>
<rect x="169.928" y="84.9219" width="3.94035" height="15.2849" fill="#714D22"/>
<path fill-rule="evenodd" clip-rule="evenodd" d="M166.48 85.7015C166.48 82.5526 169.032 80 172.181 80C175.33 80 177.882 82.5526 177.882 85.7015V86.7223C177.882 86.8448 177.879 86.9663 177.871 87.0869C180.232 87.7839 181.956 89.9686 181.956 92.5559V93.5767C181.956 96.7256 179.403 99.2782 176.254 99.2782C174.551 99.2782 173.023 98.5316 171.978 97.3477C170.933 98.5316 169.405 99.2782 167.701 99.2782C164.553 99.2782 162 96.7256 162 93.5767V92.5559C162 89.8244 163.921 87.5415 166.485 86.9844C166.481 86.8975 166.48 86.8102 166.48 86.7223V85.7015Z" fill="#66A865"/>
<path fill-rule="evenodd" clip-rule="evenodd" d="M162.156 91.4692C162.672 94.0882 164.98 96.0637 167.751 96.0637C169.453 96.0637 170.982 95.3173 172.026 94.1338C173.071 95.3173 174.6 96.0637 176.302 96.0637C179.072 96.0637 181.38 94.0889 181.896 91.4706C181.967 91.8286 182.003 92.1988 182.003 92.5775V93.5984C182.003 96.7472 179.451 99.2998 176.302 99.2998C174.599 99.2998 173.071 98.5534 172.026 97.37C170.981 98.5534 169.453 99.2998 167.75 99.2998C164.601 99.2998 162.049 96.7472 162.049 93.5983V92.5775C162.049 92.1983 162.086 91.8277 162.156 91.4692Z" fill="#458244"/>
<rect x="116.928" y="82.0957" width="4.05106" height="20.0901" fill="#93642D"/>
<rect x="116.928" y="81.9219" width="3.94035" height="15.2849" fill="#714D22"/>
<path fill-rule="evenodd" clip-rule="evenodd" d="M113.48 82.7015C113.48 79.5526 116.032 77 119.181 77C122.33 77 124.882 79.5526 124.882 82.7015V83.7223C124.882 83.8448 124.879 83.9663 124.871 84.0869C127.232 84.7839 128.956 86.9686 128.956 89.5559V90.5767C128.956 93.7256 126.403 96.2782 123.254 96.2782C121.551 96.2782 120.023 95.5316 118.978 94.3477C117.933 95.5316 116.405 96.2782 114.701 96.2782C111.553 96.2782 109 93.7256 109 90.5767V89.5559C109 86.8244 110.921 84.5415 113.485 83.9844C113.481 83.8975 113.48 83.8102 113.48 83.7223V82.7015Z" fill="#66A865"/>
<path fill-rule="evenodd" clip-rule="evenodd" d="M109.156 88.4692C109.672 91.0882 111.98 93.0637 114.751 93.0637C116.453 93.0637 117.982 92.3173 119.026 91.1338C120.071 92.3173 121.6 93.0637 123.302 93.0637C126.072 93.0637 128.38 91.0889 128.896 88.4706C128.967 88.8286 129.003 89.1988 129.003 89.5775V90.5984C129.003 93.7472 126.451 96.2998 123.302 96.2998C121.599 96.2998 120.071 95.5534 119.026 94.37C117.981 95.5534 116.453 96.2998 114.75 96.2998C111.601 96.2998 109.049 93.7472 109.049 90.5983V89.5775C109.049 89.1983 109.086 88.8277 109.156 88.4692Z" fill="#458244"/>
<rect x="47.9277" y="81.561" width="4.05106" height="20.0901" fill="#93642D"/>
<rect x="47.9277" y="81.3872" width="3.94035" height="15.2849" fill="#714D22"/>
<path fill-rule="evenodd" clip-rule="evenodd" d="M44.4795 82.1668C44.4795 79.018 47.0321 76.4653 50.181 76.4653C53.3298 76.4653 55.8825 79.018 55.8825 82.1668V83.1877C55.8825 83.3101 55.8786 83.4317 55.871 83.5522C58.2324 84.2492 59.9557 86.434 59.9557 89.0212V90.0421C59.9557 93.1909 57.4031 95.7436 54.2542 95.7436C52.5512 95.7436 51.0226 94.9969 49.9779 93.8131C48.9331 94.9969 47.4045 95.7436 45.7015 95.7436C42.5526 95.7436 40 93.1909 40 90.0421V89.0212C40 86.2897 41.9208 84.0069 44.4854 83.4497C44.4815 83.3628 44.4795 83.2755 44.4795 83.1877V82.1668Z" fill="#66A865"/>
<path fill-rule="evenodd" clip-rule="evenodd" d="M40.1565 87.9346C40.6718 90.5536 42.9805 92.529 45.7506 92.529C47.4533 92.529 48.9817 91.7826 50.0264 90.5991C51.0711 91.7826 52.5995 92.529 54.3023 92.529C57.0719 92.529 59.3802 90.5542 59.8961 87.9359C59.9666 88.294 60.0035 88.6641 60.0035 89.0428V90.0637C60.0035 93.2125 57.4508 95.7652 54.302 95.7652C52.5993 95.7652 51.0709 95.0188 50.0262 93.8353C48.9814 95.0188 47.453 95.7652 45.7503 95.7652C42.6015 95.7652 40.0488 93.2125 40.0488 90.0637V89.0428C40.0488 88.6636 40.0858 88.2931 40.1565 87.9346Z" fill="#458244"/>
</svg>
